COMMENT vga
STARTFONT 2.1
COMMENT This font was automatically resized by bdfresize-1.5
COMMENT   mag_x = 2/1, mag_y = 2/1, blackness = 1
FONT vga
SIZE 32 75 75
FONTBOUNDINGBOX 16 32 0 -8
STARTPROPERTIES 4
FONT_DESCENT 8
FONT_ASCENT 24
AVERAGE_WIDTH 160
DEFAULT_CHAR 0
ENDPROPERTIES
CHARS 224
STARTCHAR u0020
ENCODING 32
SWIDTH 1332 0
DWIDTH 16 0
BBX 16 32 0 -8
BITMAP
0000
0000
0000
0000
0000
0000
0000
0000
0000
0000
0000
0000
0000
0000
0000
0000
0000
0000
0000
0000
0000
0000
0000
0000
0000
0000
0000
0000
0000
0000
0000
0000
ENDCHAR
STARTCHAR u005A
ENCODING 90
SWIDTH 1332 0
DWIDTH 16 0
BBX 16 32 0 -8
BITMAP
0000
0000
0000
0000
0000
0000
FFFC
FFFC
F03C
F03C
C03C
C03C
00F0
00F0
03C0
03C0
0F00
0F00
3C00
3C00
F00C
F00C
F03C
F03C
FFFC
FFFC
0000
0000
0000
0000
0000
0000
ENDCHAR
STARTCHAR u00CE
ENCODING 206
SWIDTH 1332 0
DWIDTH 16 0
BBX 16 32 0 -8
BITMAP
0000
0000
0FF0
0FF0
3C3C
3C3C
0000
0000
0FF0
0FF0
03C0
03C0
03C0
03C0
03C0
03C0
03C0
03C0
03C0
03C0
03C0
03C0
03C0
03C0
0FF0
0FF0
0000
0000
0000
0000
0000
0000
ENDCHAR
STARTCHAR u0076
ENCODING 118
SWIDTH 1332 0
DWIDTH 16 0
BBX 16 32 0 -8
BITMAP
0000
0000
0000
0000
0000
0000
0000
0000
0000
0000
0000
0000
F03C
F03C
F03C
F03C
F03C
F03C
F03C
F03C
F03C
F03C
3CF0
3CF0
0FC0
0FC0
0000
0000
0000
0000
0000
0000
ENDCHAR
STARTCHAR u0047
ENCODING 71
SWIDTH 1332 0
DWIDTH 16 0
BBX 16 32 0 -8
BITMAP
0000
0000
0000
0000
0000
0000
0FF0
0FF0
3C3C
3C3C
F00C
F00C
F000
F000
F000
F000
F3FC
F3FC
F03C
F03C
F03C
F03C
3C3C
3C3C
0FCC
0FCC
0000
0000
0000
0000
0000
0000
ENDCHAR
STARTCHAR u1E41
ENCODING 7745
SWIDTH 1332 0
DWIDTH 16 0
BBX 16 32 0 -8
BITMAP
0000
0000
0000
0000
0000
0000
0000
0000
0F00
0F00
0000
0000
FCF0
FCF0
FFFC
FFFC
F33C
F33C
F33C
F33C
F33C
F33C
F33C
F33C
F03C
F03C
0000
0000
0000
0000
0000
0000
ENDCHAR
STARTCHAR u0066
ENCODING 102
SWIDTH 1332 0
DWIDTH 16 0
BBX 16 32 0 -8
BITMAP
0000
0000
0000
0000
0000
0000
03F0
03F0
0F3C
0F3C
0F0C
0F0C
0F00
0F00
3FC0
3FC0
0F00
0F00
0F00
0F00
0F00
0F00
0F00
0F00
3FC0
3FC0
0000
0000
0000
0000
0000
0000
ENDCHAR
STARTCHAR u255E
ENCODING 9566
SWIDTH 1332 0
DWIDTH 16 0
BBX 16 32 0 -8
BITMAP
03C0
03C0
03C0
03C0
03C0
03C0
03C0
03C0
03C0
03C0
03FF
03FF
03C0
03C0
03FF
03FF
03C0
03C0
03C0
03C0
03C0
03C0
03C0
03C0
03C0
03C0
03C0
03C0
03C0
03C0
03C0
03C0
ENDCHAR
STARTCHAR u00C8
ENCODING 200
SWIDTH 1332 0
DWIDTH 16 0
BBX 16 32 0 -8
BITMAP
0000
0000
0F00
0F00
03C0
03C0
0000
0000
FFFC
FFFC
3C3C
3C3C
3C0C
3C0C
3CC0
3CC0
3FC0
3FC0
3CC0
3CC0
3C0C
3C0C
3C3C
3C3C
FFFC
FFFC
0000
0000
0000
0000
0000
0000
ENDCHAR
STARTCHAR u0178
ENCODING 376
SWIDTH 1332 0
DWIDTH 16 0
BBX 16 32 0 -8
BITMAP
0000
0000
3C3C
3C3C
0000
0000
3C3C
3C3C
3C3C
3C3C
3C3C
3C3C
3C3C
3C3C
0FF0
0FF0
03C0
03C0
03C0
03C0
03C0
03C0
03C0
03C0
0FF0
0FF0
0000
0000
0000
0000
0000
0000
ENDCHAR
STARTCHAR u007D
ENCODING 125
SWIDTH 1332 0
DWIDTH 16 0
BBX 16 32 0 -8
BITMAP
0000
0000
0000
0000
0000
0000
3F00
3F00
03C0
03C0
03C0
03C0
03C0
03C0
00FC
00FC
03C0
03C0
03C0
03C0
03C0
03C0
03C0
03C0
3F00
3F00
0000
0000
0000
0000
0000
0000
ENDCHAR
STARTCHAR u002C
ENCODING 44
SWIDTH 1332 0
DWIDTH 16 0
BBX 16 32 0 -8
BITMAP
0000
0000
0000
0000
0000
0000
0000
0000
0000
0000
0000
0000
0000
0000
0000
0000
0000
0000
0000
0000
0000
0000
03C0
03C0
03C0
03C0
03C0
03C0
0F00
0F00
0000
0000
ENDCHAR
STARTCHAR u0037
ENCODING 55
SWIDTH 1332 0
DWIDTH 16 0
BBX 16 32 0 -8
BITMAP
0000
0000
0000
0000
0000
0000
FFFC
FFFC
F03C
F03C
003C
003C
003C
003C
00F0
00F0
03C0
03C0
0F00
0F00
0F00
0F00
0F00
0F00
0F00
0F00
0000
0000
0000
0000
0000
0000
ENDCHAR
STARTCHAR u0054
ENCODING 84
SWIDTH 1332 0
DWIDTH 16 0
BBX 16 32 0 -8
BITMAP
0000
0000
0000
0000
0000
0000
3FFC
3FFC
3FFC
3FFC
33CC
33CC
03C0
03C0
03C0
03C0
03C0
03C0
03C0
03C0
03C0
03C0
03C0
03C0
0FF0
0FF0
0000
0000
0000
0000
0000
0000
ENDCHAR
STARTCHAR u00E9
ENCODING 233
SWIDTH 1332 0
DWIDTH 16 0
BBX 16 32 0 -8
BITMAP
0000
0000
0000
0000
00F0
00F0
03C0
03C0
0F00
0F00
0000
0000
3FF0
3FF0
F03C
F03C
FFFC
FFFC
F000
F000
F000
F000
F03C
F03C
3FF0
3FF0
0000
0000
0000
0000
0000
0000
ENDCHAR
STARTCHAR u00C2
ENCODING 194
SWIDTH 1332 0
DWIDTH 16 0
BBX 16 32 0 -8
BITMAP
0000
0000
3FF0
3FF0
F03C
F03C
0300
0300
0FC0
0FC0
3CF0
3CF0
F03C
F03C
F03C
F03C
FFFC
FFFC
F03C
F03C
F03C
F03C
F03C
F03C
F03C
F03C
0000
0000
0000
0000
0000
0000
ENDCHAR
STARTCHAR u005F
ENCODING 95
SWIDTH 1332 0
DWIDTH 16 0
BBX 16 32 0 -8
BITMAP
0000
0000
0000
0000
0000
0000
0000
0000
0000
0000
0000
0000
0000
0000
0000
0000
0000
0000
0000
0000
0000
0000
0000
0000
0000
0000
0000
0000
FFFF
FFFF
0000
0000
ENDCHAR
STARTCHAR u0039
ENCODING 57
SWIDTH 1332 0
DWIDTH 16 0
BBX 16 32 0 -8
BITMAP
0000
0000
0000
0000
0000
0000
3FF0
3FF0
F03C
F03C
F03C
F03C
F03C
F03C
3FFC
3FFC
003C
003C
003C
003C
003C
003C
00F0
00F0
3FC0
3FC0
0000
0000
0000
0000
0000
0000
ENDCHAR
STARTCHAR u00DC
ENCODING 220
SWIDTH 1332 0
DWIDTH 16 0
BBX 16 32 0 -8
BITMAP
0000
0000
0000
0000
F03C
F03C
0000
0000
F03C
F03C
F03C
F03C
F03C
F03C
F03C
F03C
F03C
F03C
F03C
F03C
F03C
F03C
F03C
F03C
3FF0
3FF0
0000
0000
0000
0000
0000
0000
ENDCHAR
STARTCHAR u1EF2
ENCODING 7922
SWIDTH 1332 0
DWIDTH 16 0
BBX 16 32 0 -8
BITMAP
0F00
0F00
03C0
03C0
0000
0000
3C3C
3C3C
3C3C
3C3C
3C3C
3C3C
3C3C
3C3C
0FF0
0FF0
03C0
03C0
03C0
03C0
03C0
03C0
03C0
03C0
0FF0
0FF0
0000
0000
0000
0000
0000
0000
ENDCHAR
STARTCHAR u00F3
ENCODING 243
SWIDTH 1332 0
DWIDTH 16 0
BBX 16 32 0 -8
BITMAP
0000
0000
0000
0000
03C0
03C0
0F00
0F00
3C00
3C00
0000
0000
3FF0
3FF0
F03C
F03C
F03C
F03C
F03C
F03C
F03C
F03C
F03C
F03C
3FF0
3FF0
0000
0000
0000
0000
0000
0000
ENDCHAR
STARTCHAR u00E7
ENCODING 231
SWIDTH 1332 0
DWIDTH 16 0
BBX 16 32 0 -8
BITMAP
0000
0000
0000
0000
0000
0000
0000
0000
0000
0000
0000
0000
3FF0
3FF0
F03C
F03C
F000
F000
F000
F000
F000
F000
F03C
F03C
3FF0
3FF0
03C0
03C0
3F00
3F00
0000
0000
ENDCHAR
STARTCHAR u00A3
ENCODING 163
SWIDTH 1332 0
DWIDTH 16 0
BBX 16 32 0 -8
BITMAP
0000
0000
0000
0000
0FC0
0FC0
3CF0
3CF0
3C30
3C30
3C00
3C00
FF00
FF00
3C00
3C00
3C00
3C00
3C00
3C00
3C00
3C00
FC3C
FC3C
FFF0
FFF0
0000
0000
0000
0000
0000
0000
ENDCHAR
STARTCHAR u006D
ENCODING 109
SWIDTH 1332 0
DWIDTH 16 0
BBX 16 32 0 -8
BITMAP
0000
0000
0000
0000
0000
0000
0000
0000
0000
0000
0000
0000
FCF0
FCF0
FFFC
FFFC
F33C
F33C
F33C
F33C
F33C
F33C
F33C
F33C
F03C
F03C
0000
0000
0000
0000
0000
0000
ENDCHAR
STARTCHAR u2514
ENCODING 9492
SWIDTH 1332 0
DWIDTH 16 0
BBX 16 32 0 -8
BITMAP
03C0
03C0
03C0
03C0
03C0
03C0
03C0
03C0
03C0
03C0
03C0
03C0
03C0
03C0
03FF
03FF
0000
0000
0000
0000
0000
0000
0000
0000
0000
0000
0000
0000
0000
0000
0000
0000
ENDCHAR
STARTCHAR u2534
ENCODING 9524
SWIDTH 1332 0
DWIDTH 16 0
BBX 16 32 0 -8
BITMAP
03C0
03C0
03C0
03C0
03C0
03C0
03C0
03C0
03C0
03C0
03C0
03C0
03C0
03C0
FFFF
FFFF
0000
0000
0000
0000
0000
0000
0000
0000
0000
0000
0000
0000
0000
0000
0000
0000
ENDCHAR
STARTCHAR u0059
ENCODING 89
SWIDTH 1332 0
DWIDTH 16 0
BBX 16 32 0 -8
BITMAP
0000
0000
0000
0000
0000
0000
3C3C
3C3C
3C3C
3C3C
3C3C
3C3C
3C3C
3C3C
0FF0
0FF0
03C0
03C0
03C0
03C0
03C0
03C0
03C0
03C0
0FF0
0FF0
0000
0000
0000
0000
0000
0000
ENDCHAR
STARTCHAR u1E82
ENCODING 7810
SWIDTH 1332 0
DWIDTH 16 0
BBX 16 32 0 -8
BITMAP
00F0
00F0
03C0
03C0
0000
0000
F03C
F03C
F03C
F03C
F03C
F03C
F03C
F03C
F33C
F33C
F33C
F33C
F33C
F33C
FFFC
FFFC
FCFC
FCFC
3CF0
3CF0
0000
0000
0000
0000
0000
0000
ENDCHAR
STARTCHAR u20A0
ENCODING 8352
SWIDTH 1332 0
DWIDTH 16 0
BBX 16 32 0 -8
BITMAP
0000
0000
0000
0000
03F0
03F0
0F0C
0F0C
3C00
3C00
3C00
3C00
FFF0
FFF0
3C00
3C00
FFF0
FFF0
3C00
3C00
3C00
3C00
0F0C
0F0C
03F0
03F0
0000
0000
0000
0000
0000
0000
ENDCHAR
STARTCHAR u0023
ENCODING 35
SWIDTH 1332 0
DWIDTH 16 0
BBX 16 32 0 -8
BITMAP
0000
0000
0000
0000
0000
0000
0000
0000
3CF0
3CF0
3CF0
3CF0
FFFC
FFFC
3CF0
3CF0
3CF0
3CF0
3CF0
3CF0
FFFC
FFFC
3CF0
3CF0
3CF0
3CF0
0000
0000
0000
0000
0000
0000
ENDCHAR
STARTCHAR u004E
ENCODING 78
SWIDTH 1332 0
DWIDTH 16 0
BBX 16 32 0 -8
BITMAP
0000
0000
0000
0000
0000
0000
F03C
F03C
FC3C
FC3C
FF3C
FF3C
FFFC
FFFC
F3FC
F3FC
F0FC
F0FC
F03C
F03C
F03C
F03C
F03C
F03C
F03C
F03C
0000
0000
0000
0000
0000
0000
ENDCHAR
STARTCHAR u005D
ENCODING 93
SWIDTH 1332 0
DWIDTH 16 0
BBX 16 32 0 -8
BITMAP
0000
0000
0000
0000
0000
0000
0FF0
0FF0
00F0
00F0
00F0
00F0
00F0
00F0
00F0
00F0
00F0
00F0
00F0
00F0
00F0
00F0
00F0
00F0
0FF0
0FF0
0000
0000
0000
0000
0000
0000
ENDCHAR
STARTCHAR u006A
ENCODING 106
SWIDTH 1332 0
DWIDTH 16 0
BBX 16 32 0 -8
BITMAP
0000
0000
0000
0000
0000
0000
003C
003C
003C
003C
0000
0000
00FC
00FC
003C
003C
003C
003C
003C
003C
003C
003C
003C
003C
003C
003C
3C3C
3C3C
3C3C
3C3C
0FF0
0FF0
ENDCHAR
STARTCHAR u0041
ENCODING 65
SWIDTH 1332 0
DWIDTH 16 0
BBX 16 32 0 -8
BITMAP
0000
0000
0000
0000
0000
0000
0300
0300
0FC0
0FC0
3CF0
3CF0
F03C
F03C
F03C
F03C
FFFC
FFFC
F03C
F03C
F03C
F03C
F03C
F03C
F03C
F03C
0000
0000
0000
0000
0000
0000
ENDCHAR
STARTCHAR u00C5
ENCODING 197
SWIDTH 1332 0
DWIDTH 16 0
BBX 16 32 0 -8
BITMAP
0000
0000
0FC0
0FC0
3CF0
3CF0
0FC0
0FC0
0300
0300
0FC0
0FC0
3CF0
3CF0
F03C
F03C
F03C
F03C
FFFC
FFFC
F03C
F03C
F03C
F03C
F03C
F03C
0000
0000
0000
0000
0000
0000
ENDCHAR
STARTCHAR u00CB
ENCODING 203
SWIDTH 1332 0
DWIDTH 16 0
BBX 16 32 0 -8
BITMAP
0000
0000
0000
0000
F03C
F03C
0000
0000
FFFC
FFFC
3C3C
3C3C
3C0C
3C0C
3CC0
3CC0
3FC0
3FC0
3CC0
3CC0
3C0C
3C0C
3C3C
3C3C
FFFC
FFFC
0000
0000
0000
0000
0000
0000
ENDCHAR
STARTCHAR u0176
ENCODING 374
SWIDTH 1332 0
DWIDTH 16 0
BBX 16 32 0 -8
BITMAP
0000
0000
0FF0
0FF0
3C3C
3C3C
0000
0000
3C3C
3C3C
3C3C
3C3C
3C3C
3C3C
0FF0
0FF0
03C0
03C0
03C0
03C0
03C0
03C0
03C0
03C0
0FF0
0FF0
0000
0000
0000
0000
0000
0000
ENDCHAR
STARTCHAR u00C7
ENCODING 199
SWIDTH 1332 0
DWIDTH 16 0
BBX 16 32 0 -8
BITMAP
0000
0000
0000
0000
0000
0000
0FF0
0FF0
3C3C
3C3C
F00C
F00C
F000
F000
F000
F000
F000
F000
F000
F000
F00C
F00C
3C3C
3C3C
0FF0
0FF0
03C0
03C0
3F00
3F00
0000
0000
ENDCHAR
STARTCHAR u0072
ENCODING 114
SWIDTH 1332 0
DWIDTH 16 0
BBX 16 32 0 -8
BITMAP
0000
0000
0000
0000
0000
0000
0000
0000
0000
0000
0000
0000
F3F0
F3F0
3F3C
3F3C
3C3C
3C3C
3C00
3C00
3C00
3C00
3C00
3C00
FF00
FF00
0000
0000
0000
0000
0000
0000
ENDCHAR
STARTCHAR u00E2
ENCODING 226
SWIDTH 1332 0
DWIDTH 16 0
BBX 16 32 0 -8
BITMAP
0000
0000
0000
0000
0300
0300
0FC0
0FC0
3CF0
3CF0
0000
0000
3FC0
3FC0
00F0
00F0
3FF0
3FF0
F0F0
F0F0
F0F0
F0F0
F0F0
F0F0
3F3C
3F3C
0000
0000
0000
0000
0000
0000
ENDCHAR
STARTCHAR u003A
ENCODING 58
SWIDTH 1332 0
DWIDTH 16 0
BBX 16 32 0 -8
BITMAP
0000
0000
0000
0000
0000
0000
0000
0000
0000
0000
03C0
03C0
03C0
03C0
0000
0000
0000
0000
0000
0000
03C0
03C0
03C0
03C0
0000
0000
0000
0000
0000
0000
0000
0000
ENDCHAR
STARTCHAR u00D3
ENCODING 211
SWIDTH 1332 0
DWIDTH 16 0
BBX 16 32 0 -8
BITMAP
0000
0000
03C0
03C0
0F00
0F00
0000
0000
3FF0
3FF0
F03C
F03C
F03C
F03C
F03C
F03C
F03C
F03C
F03C
F03C
F03C
F03C
F03C
F03C
3FF0
3FF0
0000
0000
0000
0000
0000
0000
ENDCHAR
STARTCHAR u0051
ENCODING 81
SWIDTH 1332 0
DWIDTH 16 0
BBX 16 32 0 -8
BITMAP
0000
0000
0000
0000
0000
0000
3FF0
3FF0
F03C
F03C
F03C
F03C
F03C
F03C
F03C
F03C
F03C
F03C
F03C
F03C
F33C
F33C
F3FC
F3FC
3FF0
3FF0
00F0
00F0
00FC
00FC
0000
0000
ENDCHAR
STARTCHAR u003C
ENCODING 60
SWIDTH 1332 0
DWIDTH 16 0
BBX 16 32 0 -8
BITMAP
0000
0000
0000
0000
0000
0000
0000
0000
003C
003C
00F0
00F0
03C0
03C0
0F00
0F00
3C00
3C00
0F00
0F00
03C0
03C0
00F0
00F0
003C
003C
0000
0000
0000
0000
0000
0000
ENDCHAR
STARTCHAR u2592
ENCODING 9618
SWIDTH 1332 0
DWIDTH 16 0
BBX 16 32 0 -8
BITMAP
3333
3333
CCCC
CCCC
3333
3333
CCCC
CCCC
3333
3333
CCCC
CCCC
3333
3333
CCCC
CCCC
3333
3333
CCCC
CCCC
3333
3333
CCCC
CCCC
3333
3333
CCCC
CCCC
3333
3333
CCCC
CCCC
ENDCHAR
STARTCHAR u0065
ENCODING 101
SWIDTH 1332 0
DWIDTH 16 0
BBX 16 32 0 -8
BITMAP
0000
0000
0000
0000
0000
0000
0000
0000
0000
0000
0000
0000
3FF0
3FF0
F03C
F03C
FFFC
FFFC
F000
F000
F000
F000
F03C
F03C
3FF0
3FF0
0000
0000
0000
0000
0000
0000
ENDCHAR
STARTCHAR u0049
ENCODING 73
SWIDTH 1332 0
DWIDTH 16 0
BBX 16 32 0 -8
BITMAP
0000
0000
0000
0000
0000
0000
0FF0
0FF0
03C0
03C0
03C0
03C0
03C0
03C0
03C0
03C0
03C0
03C0
03C0
03C0
03C0
03C0
03C0
03C0
0FF0
0FF0
0000
0000
0000
0000
0000
0000
ENDCHAR
STARTCHAR u0056
ENCODING 86
SWIDTH 1332 0
DWIDTH 16 0
BBX 16 32 0 -8
BITMAP
0000
0000
0000
0000
0000
0000
F03C
F03C
F03C
F03C
F03C
F03C
F03C
F03C
F03C
F03C
F03C
F03C
F03C
F03C
3CF0
3CF0
0FC0
0FC0
0300
0300
0000
0000
0000
0000
0000
0000
ENDCHAR
STARTCHAR u004C
ENCODING 76
SWIDTH 1332 0
DWIDTH 16 0
BBX 16 32 0 -8
BITMAP
0000
0000
0000
0000
0000
0000
FF00
FF00
3C00
3C00
3C00
3C00
3C00
3C00
3C00
3C00
3C00
3C00
3C00
3C00
3C0C
3C0C
3C3C
3C3C
FFFC
FFFC
0000
0000
0000
0000
0000
0000
ENDCHAR
STARTCHAR u003E
ENCODING 62
SWIDTH 1332 0
DWIDTH 16 0
BBX 16 32 0 -8
BITMAP
0000
0000
0000
0000
0000
0000
0000
0000
3C00
3C00
0F00
0F00
03C0
03C0
00F0
00F0
003C
003C
00F0
00F0
03C0
03C0
0F00
0F00
3C00
3C00
0000
0000
0000
0000
0000
0000
ENDCHAR
STARTCHAR u0043
ENCODING 67
SWIDTH 1332 0
DWIDTH 16 0
BBX 16 32 0 -8
BITMAP
0000
0000
0000
0000
0000
0000
0FF0
0FF0
3C3C
3C3C
F00C
F00C
F000
F000
F000
F000
F000
F000
F000
F000
F00C
F00C
3C3C
3C3C
0FF0
0FF0
0000
0000
0000
0000
0000
0000
ENDCHAR
STARTCHAR u00CC
ENCODING 204
SWIDTH 1332 0
DWIDTH 16 0
BBX 16 32 0 -8
BITMAP
0000
0000
0F00
0F00
03C0
03C0
0000
0000
0FF0
0FF0
03C0
03C0
03C0
03C0
03C0
03C0
03C0
03C0
03C0
03C0
03C0
03C0
03C0
03C0
0FF0
0FF0
0000
0000
0000
0000
0000
0000
ENDCHAR
STARTCHAR u00F1
ENCODING 241
SWIDTH 1332 0
DWIDTH 16 0
BBX 16 32 0 -8
BITMAP
0000
0000
0000
0000
0000
0000
3F3C
3F3C
F3F0
F3F0
0000
0000
F3F0
F3F0
3C3C
3C3C
3C3C
3C3C
3C3C
3C3C
3C3C
3C3C
3C3C
3C3C
3C3C
3C3C
0000
0000
0000
0000
0000
0000
ENDCHAR
STARTCHAR u0121
ENCODING 289
SWIDTH 1332 0
DWIDTH 16 0
BBX 16 32 0 -8
BITMAP
0000
0000
0000
0000
0000
0000
0000
0000
03C0
03C0
0000
0000
3F3C
3F3C
F0F0
F0F0
F0F0
F0F0
F0F0
F0F0
F0F0
F0F0
F0F0
F0F0
3FF0
3FF0
00F0
00F0
F0F0
F0F0
3FC0
3FC0
ENDCHAR
STARTCHAR u00C6
ENCODING 198
SWIDTH 1332 0
DWIDTH 16 0
BBX 16 32 0 -8
BITMAP
0000
0000
0000
0000
0000
0000
0FFC
0FFC
3CF0
3CF0
F0F0
F0F0
F0F0
F0F0
FFFC
FFFC
F0F0
F0F0
F0F0
F0F0
F0F0
F0F0
F0F0
F0F0
F0FC
F0FC
0000
0000
0000
0000
0000
0000
ENDCHAR
STARTCHAR u2561
ENCODING 9569
SWIDTH 1332 0
DWIDTH 16 0
BBX 16 32 0 -8
BITMAP
03C0
03C0
03C0
03C0
03C0
03C0
03C0
03C0
03C0
03C0
FFC0
FFC0
03C0
03C0
FFC0
FFC0
03C0
03C0
03C0
03C0
03C0
03C0
03C0
03C0
03C0
03C0
03C0
03C0
03C0
03C0
03C0
03C0
ENDCHAR
STARTCHAR u1E61
ENCODING 7777
SWIDTH 1332 0
DWIDTH 16 0
BBX 16 32 0 -8
BITMAP
0000
0000
0000
0000
0000
0000
0000
0000
03C0
03C0
0000
0000
3FF0
3FF0
F03C
F03C
3C00
3C00
0FC0
0FC0
00F0
00F0
F03C
F03C
3FF0
3FF0
0000
0000
0000
0000
0000
0000
ENDCHAR
STARTCHAR u253C
ENCODING 9532
SWIDTH 1332 0
DWIDTH 16 0
BBX 16 32 0 -8
BITMAP
03C0
03C0
03C0
03C0
03C0
03C0
03C0
03C0
03C0
03C0
03C0
03C0
03C0
03C0
FFFF
FFFF
03C0
03C0
03C0
03C0
03C0
03C0
03C0
03C0
03C0
03C0
03C0
03C0
03C0
03C0
03C0
03C0
ENDCHAR
STARTCHAR u006E
ENCODING 110
SWIDTH 1332 0
DWIDTH 16 0
BBX 16 32 0 -8
BITMAP
0000
0000
0000
0000
0000
0000
0000
0000
0000
0000
0000
0000
F3F0
F3F0
3C3C
3C3C
3C3C
3C3C
3C3C
3C3C
3C3C
3C3C
3C3C
3C3C
3C3C
3C3C
0000
0000
0000
0000
0000
0000
ENDCHAR
STARTCHAR u0052
ENCODING 82
SWIDTH 1332 0
DWIDTH 16 0
BBX 16 32 0 -8
BITMAP
0000
0000
0000
0000
0000
0000
FFF0
FFF0
3C3C
3C3C
3C3C
3C3C
3C3C
3C3C
3FF0
3FF0
3CF0
3CF0
3C3C
3C3C
3C3C
3C3C
3C3C
3C3C
FC3C
FC3C
0000
0000
0000
0000
0000
0000
ENDCHAR
STARTCHAR u00E4
ENCODING 228
SWIDTH 1332 0
DWIDTH 16 0
BBX 16 32 0 -8
BITMAP
0000
0000
0000
0000
0000
0000
F0F0
F0F0
0000
0000
0000
0000
3FC0
3FC0
00F0
00F0
3FF0
3FF0
F0F0
F0F0
F0F0
F0F0
F0F0
F0F0
3F3C
3F3C
0000
0000
0000
0000
0000
0000
ENDCHAR
STARTCHAR u1E1E
ENCODING 7710
SWIDTH 1332 0
DWIDTH 16 0
BBX 16 32 0 -8
BITMAP
0000
0000
03C0
03C0
0000
0000
FFFC
FFFC
3C3C
3C3C
3C0C
3C0C
3CC0
3CC0
3FC0
3FC0
3CC0
3CC0
3C00
3C00
3C00
3C00
3C00
3C00
FF00
FF00
0000
0000
0000
0000
0000
0000
ENDCHAR
STARTCHAR u00EC
ENCODING 236
SWIDTH 1332 0
DWIDTH 16 0
BBX 16 32 0 -8
BITMAP
0000
0000
0000
0000
3C00
3C00
0F00
0F00
03C0
03C0
0000
0000
0FC0
0FC0
03C0
03C0
03C0
03C0
03C0
03C0
03C0
03C0
03C0
03C0
0FF0
0FF0
0000
0000
0000
0000
0000
0000
ENDCHAR
STARTCHAR u00F9
ENCODING 249
SWIDTH 1332 0
DWIDTH 16 0
BBX 16 32 0 -8
BITMAP
0000
0000
0000
0000
3C00
3C00
0F00
0F00
03C0
03C0
0000
0000
F0F0
F0F0
F0F0
F0F0
F0F0
F0F0
F0F0
F0F0
F0F0
F0F0
F0F0
F0F0
3F3C
3F3C
0000
0000
0000
0000
0000
0000
ENDCHAR
STARTCHAR u00DA
ENCODING 218
SWIDTH 1332 0
DWIDTH 16 0
BBX 16 32 0 -8
BITMAP
0000
0000
03C0
03C0
0F00
0F00
0000
0000
F03C
F03C
F03C
F03C
F03C
F03C
F03C
F03C
F03C
F03C
F03C
F03C
F03C
F03C
F03C
F03C
3FF0
3FF0
0000
0000
0000
0000
0000
0000
ENDCHAR
STARTCHAR u00CA
ENCODING 202
SWIDTH 1332 0
DWIDTH 16 0
BBX 16 32 0 -8
BITMAP
0000
0000
0FC0
0FC0
3CF0
3CF0
0000
0000
FFFC
FFFC
3C3C
3C3C
3C0C
3C0C
3CC0
3CC0
3FC0
3FC0
3CC0
3CC0
3C0C
3C0C
3C3C
3C3C
FFFC
FFFC
0000
0000
0000
0000
0000
0000
ENDCHAR
STARTCHAR u0070
ENCODING 112
SWIDTH 1332 0
DWIDTH 16 0
BBX 16 32 0 -8
BITMAP
0000
0000
0000
0000
0000
0000
0000
0000
0000
0000
0000
0000
F3F0
F3F0
3C3C
3C3C
3C3C
3C3C
3C3C
3C3C
3C3C
3C3C
3C3C
3C3C
3FF0
3FF0
3C00
3C00
3C00
3C00
FF00
FF00
ENDCHAR
STARTCHAR u0045
ENCODING 69
SWIDTH 1332 0
DWIDTH 16 0
BBX 16 32 0 -8
BITMAP
0000
0000
0000
0000
0000
0000
FFFC
FFFC
3C3C
3C3C
3C0C
3C0C
3CC0
3CC0
3FC0
3FC0
3CC0
3CC0
3C00
3C00
3C0C
3C0C
3C3C
3C3C
FFFC
FFFC
0000
0000
0000
0000
0000
0000
ENDCHAR
STARTCHAR u0031
ENCODING 49
SWIDTH 1332 0
DWIDTH 16 0
BBX 16 32 0 -8
BITMAP
0000
0000
0000
0000
0000
0000
03C0
03C0
0FC0
0FC0
3FC0
3FC0
03C0
03C0
03C0
03C0
03C0
03C0
03C0
03C0
03C0
03C0
03C0
03C0
3FFC
3FFC
0000
0000
0000
0000
0000
0000
ENDCHAR
STARTCHAR u1E6A
ENCODING 7786
SWIDTH 1332 0
DWIDTH 16 0
BBX 16 32 0 -8
BITMAP
0000
0000
03C0
03C0
0000
0000
3FFC
3FFC
3FFC
3FFC
33CC
33CC
03C0
03C0
03C0
03C0
03C0
03C0
03C0
03C0
03C0
03C0
03C0
03C0
0FF0
0FF0
0000
0000
0000
0000
0000
0000
ENDCHAR
STARTCHAR u00E0
ENCODING 224
SWIDTH 1332 0
DWIDTH 16 0
BBX 16 32 0 -8
BITMAP
0000
0000
0000
0000
3C00
3C00
0F00
0F00
03C0
03C0
0000
0000
3FC0
3FC0
00F0
00F0
3FF0
3FF0
F0F0
F0F0
F0F0
F0F0
F0F0
F0F0
3F3C
3F3C
0000
0000
0000
0000
0000
0000
ENDCHAR
STARTCHAR u250C
ENCODING 9484
SWIDTH 1332 0
DWIDTH 16 0
BBX 16 32 0 -8
BITMAP
0F3C
0F3C
0F3C
0F3C
0F3C
0F3C
0F3C
0F3C
0F3C
0F3C
FF3F
FF3F
0000
0000
FFFF
FFFF
0000
0000
0000
0000
0000
0000
0000
0000
0000
0000
0000
0000
0000
0000
0000
0000
ENDCHAR
STARTCHAR u00DF
ENCODING 223
SWIDTH 1332 0
DWIDTH 16 0
BBX 16 32 0 -8
BITMAP
0000
0000
0000
0000
0000
0000
3FC0
3FC0
F0F0
F0F0
F0F0
F0F0
F0F0
F0F0
F3C0
F3C0
F0F0
F0F0
F03C
F03C
F03C
F03C
F03C
F03C
F0F0
F0F0
0000
0000
0000
0000
0000
0000
ENDCHAR
STARTCHAR u007C
ENCODING 124
SWIDTH 1332 0
DWIDTH 16 0
BBX 16 32 0 -8
BITMAP
0000
0000
0000
0000
0000
0000
03C0
03C0
03C0
03C0
03C0
03C0
03C0
03C0
03C0
03C0
03C0
03C0
03C0
03C0
03C0
03C0
03C0
03C0
03C0
03C0
0000
0000
0000
0000
0000
0000
ENDCHAR
STARTCHAR u0068
ENCODING 104
SWIDTH 1332 0
DWIDTH 16 0
BBX 16 32 0 -8
BITMAP
0000
0000
0000
0000
0000
0000
FC00
FC00
3C00
3C00
3C00
3C00
3CF0
3CF0
3F3C
3F3C
3C3C
3C3C
3C3C
3C3C
3C3C
3C3C
3C3C
3C3C
FC3C
FC3C
0000
0000
0000
0000
0000
0000
ENDCHAR
STARTCHAR u1EF3
ENCODING 7923
SWIDTH 1332 0
DWIDTH 16 0
BBX 16 32 0 -8
BITMAP
0000
0000
0000
0000
0000
0000
0F00
0F00
03C0
03C0
0000
0000
F03C
F03C
F03C
F03C
F03C
F03C
F03C
F03C
F03C
F03C
F03C
F03C
3FFC
3FFC
003C
003C
00F0
00F0
FFC0
FFC0
ENDCHAR
STARTCHAR u00EA
ENCODING 234
SWIDTH 1332 0
DWIDTH 16 0
BBX 16 32 0 -8
BITMAP
0000
0000
0000
0000
0300
0300
0FC0
0FC0
3CF0
3CF0
0000
0000
3FF0
3FF0
F03C
F03C
FFFC
FFFC
F000
F000
F000
F000
F03C
F03C
3FF0
3FF0
0000
0000
0000
0000
0000
0000
ENDCHAR
STARTCHAR u0079
ENCODING 121
SWIDTH 1332 0
DWIDTH 16 0
BBX 16 32 0 -8
BITMAP
0000
0000
0000
0000
0000
0000
0000
0000
0000
0000
0000
0000
F03C
F03C
F03C
F03C
F03C
F03C
F03C
F03C
F03C
F03C
F03C
F03C
3FFC
3FFC
003C
003C
00F0
00F0
FFC0
FFC0
ENDCHAR
STARTCHAR u004F
ENCODING 79
SWIDTH 1332 0
DWIDTH 16 0
BBX 16 32 0 -8
BITMAP
0000
0000
0000
0000
0000
0000
3FF0
3FF0
F03C
F03C
F03C
F03C
F03C
F03C
F03C
F03C
F03C
F03C
F03C
F03C
F03C
F03C
F03C
F03C
3FF0
3FF0
0000
0000
0000
0000
0000
0000
ENDCHAR
STARTCHAR u00D4
ENCODING 212
SWIDTH 1332 0
DWIDTH 16 0
BBX 16 32 0 -8
BITMAP
0000
0000
0FC0
0FC0
3CF0
3CF0
0000
0000
3FF0
3FF0
F03C
F03C
F03C
F03C
F03C
F03C
F03C
F03C
F03C
F03C
F03C
F03C
F03C
F03C
3FF0
3FF0
0000
0000
0000
0000
0000
0000
ENDCHAR
STARTCHAR u2518
ENCODING 9496
SWIDTH 1332 0
DWIDTH 16 0
BBX 16 32 0 -8
BITMAP
0000
0000
0000
0000
0000
0000
0000
0000
0000
0000
0FFF
0FFF
0F00
0F00
0F3F
0F3F
0F3C
0F3C
0F3C
0F3C
0F3C
0F3C
0F3C
0F3C
0F3C
0F3C
0F3C
0F3C
0F3C
0F3C
0F3C
0F3C
ENDCHAR
STARTCHAR u1E85
ENCODING 7813
SWIDTH 1332 0
DWIDTH 16 0
BBX 16 32 0 -8
BITMAP
0000
0000
0000
0000
0000
0000
0000
0000
F03C
F03C
0000
0000
F03C
F03C
F03C
F03C
F33C
F33C
F33C
F33C
F33C
F33C
FFFC
FFFC
3CF0
3CF0
0000
0000
0000
0000
0000
0000
ENDCHAR
STARTCHAR u0060
ENCODING 96
SWIDTH 1332 0
DWIDTH 16 0
BBX 16 32 0 -8
BITMAP
0000
0000
0000
0000
0F00
0F00
03C0
03C0
00F0
00F0
0000
0000
0000
0000
0000
0000
0000
0000
0000
0000
0000
0000
0000
0000
0000
0000
0000
0000
0000
0000
0000
0000
ENDCHAR
STARTCHAR u256C
ENCODING 9580
SWIDTH 1332 0
DWIDTH 16 0
BBX 16 32 0 -8
BITMAP
0F3C
0F3C
0F3C
0F3C
0F3C
0F3C
0F3C
0F3C
0F3C
0F3C
FF3F
FF3F
0000
0000
FF3F
FF3F
0F3C
0F3C
0F3C
0F3C
0F3C
0F3C
0F3C
0F3C
0F3C
0F3C
0F3C
0F3C
0F3C
0F3C
0F3C
0F3C
ENDCHAR
STARTCHAR u007E
ENCODING 126
SWIDTH 1332 0
DWIDTH 16 0
BBX 16 32 0 -8
BITMAP
0000
0000
0000
0000
3F3C
3F3C
F3F0
F3F0
0000
0000
0000
0000
0000
0000
0000
0000
0000
0000
0000
0000
0000
0000
0000
0000
0000
0000
0000
0000
0000
0000
0000
0000
ENDCHAR
STARTCHAR u00EE
ENCODING 238
SWIDTH 1332 0
DWIDTH 16 0
BBX 16 32 0 -8
BITMAP
0000
0000
0000
0000
03C0
03C0
0FF0
0FF0
3C3C
3C3C
0000
0000
0FC0
0FC0
03C0
03C0
03C0
03C0
03C0
03C0
03C0
03C0
03C0
03C0
0FF0
0FF0
0000
0000
0000
0000
0000
0000
ENDCHAR
STARTCHAR u2563
ENCODING 9571
SWIDTH 1332 0
DWIDTH 16 0
BBX 16 32 0 -8
BITMAP
0F3C
0F3C
0F3C
0F3C
0F3C
0F3C
0F3C
0F3C
0F3C
0F3C
FF3C
FF3C
003C
003C
FF3C
FF3C
0F3C
0F3C
0F3C
0F3C
0F3C
0F3C
0F3C
0F3C
0F3C
0F3C
0F3C
0F3C
0F3C
0F3C
0F3C
0F3C
ENDCHAR
STARTCHAR u00FB
ENCODING 251
SWIDTH 1332 0
DWIDTH 16 0
BBX 16 32 0 -8
BITMAP
0000
0000
0000
0000
0F00
0F00
3FC0
3FC0
F0F0
F0F0
0000
0000
F0F0
F0F0
F0F0
F0F0
F0F0
F0F0
F0F0
F0F0
F0F0
F0F0
F0F0
F0F0
3F3C
3F3C
0000
0000
0000
0000
0000
0000
ENDCHAR
STARTCHAR u2591
ENCODING 9617
SWIDTH 1332 0
DWIDTH 16 0
BBX 16 32 0 -8
BITMAP
0303
0303
3030
3030
0303
0303
3030
3030
0303
0303
3030
3030
0303
0303
3030
3030
0303
0303
3030
3030
0303
0303
3030
3030
0303
0303
3030
3030
0303
0303
3030
3030
ENDCHAR
STARTCHAR u00FD
ENCODING 253
SWIDTH 1332 0
DWIDTH 16 0
BBX 16 32 0 -8
BITMAP
0000
0000
0000
0000
00F0
00F0
03C0
03C0
0F00
0F00
0000
0000
F03C
F03C
F03C
F03C
F03C
F03C
F03C
F03C
F03C
F03C
F03C
F03C
3FFC
3FFC
003C
003C
00F0
00F0
FFC0
FFC0
ENDCHAR
STARTCHAR u2524
ENCODING 9508
SWIDTH 1332 0
DWIDTH 16 0
BBX 16 32 0 -8
BITMAP
03C0
03C0
03C0
03C0
03C0
03C0
03C0
03C0
03C0
03C0
03C0
03C0
03C0
03C0
FFC0
FFC0
03C0
03C0
03C0
03C0
03C0
03C0
03C0
03C0
03C0
03C0
03C0
03C0
03C0
03C0
03C0
03C0
ENDCHAR
STARTCHAR u00A0
ENCODING 160
SWIDTH 1332 0
DWIDTH 16 0
BBX 16 32 0 -8
BITMAP
0000
0000
0000
0000
0000
0000
0000
0000
0000
0000
0000
0000
0000
0000
0000
0000
0000
0000
0000
0000
0000
0000
0000
0000
0000
0000
0000
0000
0000
0000
0000
0000
ENDCHAR
STARTCHAR u2551
ENCODING 9553
SWIDTH 1332 0
DWIDTH 16 0
BBX 16 32 0 -8
BITMAP
0F3C
0F3C
0F3C
0F3C
0F3C
0F3C
0F3C
0F3C
0F3C
0F3C
0F3C
0F3C
0F3C
0F3C
0F3C
0F3C
0F3C
0F3C
0F3C
0F3C
0F3C
0F3C
0F3C
0F3C
0F3C
0F3C
0F3C
0F3C
0F3C
0F3C
0F3C
0F3C
ENDCHAR
STARTCHAR u2550
ENCODING 9552
SWIDTH 1332 0
DWIDTH 16 0
BBX 16 32 0 -8
BITMAP
0000
0000
0000
0000
0000
0000
0000
0000
0000
0000
FFFF
FFFF
0000
0000
FFFF
FFFF
0000
0000
0000
0000
0000
0000
0000
0000
0000
0000
0000
0000
0000
0000
0000
0000
ENDCHAR
STARTCHAR u002F
ENCODING 47
SWIDTH 1332 0
DWIDTH 16 0
BBX 16 32 0 -8
BITMAP
0000
0000
0000
0000
0000
0000
0000
0000
0000
0000
000C
000C
003C
003C
00F0
00F0
03C0
03C0
0F00
0F00
3C00
3C00
F000
F000
C000
C000
0000
0000
0000
0000
0000
0000
ENDCHAR
STARTCHAR u00D1
ENCODING 209
SWIDTH 1332 0
DWIDTH 16 0
BBX 16 32 0 -8
BITMAP
0000
0000
3F3C
3F3C
F3F0
F3F0
0000
0000
F03C
F03C
FC3C
FC3C
FF3C
FF3C
FFFC
FFFC
F3FC
F3FC
F0FC
F0FC
F03C
F03C
F03C
F03C
F03C
F03C
0000
0000
0000
0000
0000
0000
ENDCHAR
STARTCHAR u0062
ENCODING 98
SWIDTH 1332 0
DWIDTH 16 0
BBX 16 32 0 -8
BITMAP
0000
0000
0000
0000
0000
0000
FC00
FC00
3C00
3C00
3C00
3C00
3FC0
3FC0
3CF0
3CF0
3C3C
3C3C
3C3C
3C3C
3C3C
3C3C
3C3C
3C3C
3FF0
3FF0
0000
0000
0000
0000
0000
0000
ENDCHAR
STARTCHAR u00D8
ENCODING 216
SWIDTH 1332 0
DWIDTH 16 0
BBX 16 32 0 -8
BITMAP
0000
0000
0000
0000
0030
0030
3FF0
3FF0
F0FC
F0FC
F0FC
F0FC
F33C
F33C
F33C
F33C
F33C
F33C
F33C
F33C
FC3C
FC3C
FC3C
FC3C
3FF0
3FF0
3000
3000
0000
0000
0000
0000
ENDCHAR
STARTCHAR u0025
ENCODING 37
SWIDTH 1332 0
DWIDTH 16 0
BBX 16 32 0 -8
BITMAP
0000
0000
0000
0000
0000
0000
0000
0000
0000
0000
F00C
F00C
F03C
F03C
00F0
00F0
03C0
03C0
0F00
0F00
3C00
3C00
F03C
F03C
C03C
C03C
0000
0000
0000
0000
0000
0000
ENDCHAR
STARTCHAR u0174
ENCODING 372
SWIDTH 1332 0
DWIDTH 16 0
BBX 16 32 0 -8
BITMAP
0000
0000
3FF0
3FF0
F03C
F03C
0000
0000
F03C
F03C
F03C
F03C
F03C
F03C
F33C
F33C
F33C
F33C
F33C
F33C
FFFC
FFFC
FCFC
FCFC
3CF0
3CF0
0000
0000
0000
0000
0000
0000
ENDCHAR
STARTCHAR u0075
ENCODING 117
SWIDTH 1332 0
DWIDTH 16 0
BBX 16 32 0 -8
BITMAP
0000
0000
0000
0000
0000
0000
0000
0000
0000
0000
0000
0000
F0F0
F0F0
F0F0
F0F0
F0F0
F0F0
F0F0
F0F0
F0F0
F0F0
F0F0
F0F0
3F3C
3F3C
0000
0000
0000
0000
0000
0000
ENDCHAR
STARTCHAR u002B
ENCODING 43
SWIDTH 1332 0
DWIDTH 16 0
BBX 16 32 0 -8
BITMAP
0000
0000
0000
0000
0000
0000
0000
0000
0000
0000
0000
0000
03C0
03C0
03C0
03C0
3FFC
3FFC
03C0
03C0
03C0
03C0
0000
0000
0000
0000
0000
0000
0000
0000
0000
0000
ENDCHAR
STARTCHAR u00C3
ENCODING 195
SWIDTH 1332 0
DWIDTH 16 0
BBX 16 32 0 -8
BITMAP
0000
0000
3F3C
3F3C
F3F0
F3F0
0000
0000
0FC0
0FC0
3CF0
3CF0
F03C
F03C
F03C
F03C
FFFC
FFFC
F03C
F03C
F03C
F03C
F03C
F03C
F03C
F03C
0000
0000
0000
0000
0000
0000
ENDCHAR
STARTCHAR u1E56
ENCODING 7766
SWIDTH 1332 0
DWIDTH 16 0
BBX 16 32 0 -8
BITMAP
0000
0000
0F00
0F00
0000
0000
FFF0
FFF0
3C3C
3C3C
3C3C
3C3C
3C3C
3C3C
3FF0
3FF0
3C00
3C00
3C00
3C00
3C00
3C00
3C00
3C00
FF00
FF00
0000
0000
0000
0000
0000
0000
ENDCHAR
STARTCHAR u0021
ENCODING 33
SWIDTH 1332 0
DWIDTH 16 0
BBX 16 32 0 -8
BITMAP
0000
0000
0000
0000
0000
0000
03C0
03C0
0FF0
0FF0
0FF0
0FF0
0FF0
0FF0
03C0
03C0
03C0
03C0
03C0
03C0
0000
0000
03C0
03C0
03C0
03C0
0000
0000
0000
0000
0000
0000
ENDCHAR
STARTCHAR u003F
ENCODING 63
SWIDTH 1332 0
DWIDTH 16 0
BBX 16 32 0 -8
BITMAP
0000
0000
0000
0000
0000
0000
3FF0
3FF0
F03C
F03C
F03C
F03C
00F0
00F0
03C0
03C0
03C0
03C0
03C0
03C0
0000
0000
03C0
03C0
03C0
03C0
0000
0000
0000
0000
0000
0000
ENDCHAR
STARTCHAR u00E3
ENCODING 227
SWIDTH 1332 0
DWIDTH 16 0
BBX 16 32 0 -8
BITMAP
0000
0000
0000
0000
0000
0000
3F3C
3F3C
F3F0
F3F0
0000
0000
3FC0
3FC0
00F0
00F0
3FF0
3FF0
F0F0
F0F0
F0F0
F0F0
F0F0
F0F0
3F3C
3F3C
0000
0000
0000
0000
0000
0000
ENDCHAR
STARTCHAR u1E81
ENCODING 7809
SWIDTH 1332 0
DWIDTH 16 0
BBX 16 32 0 -8
BITMAP
0000
0000
0000
0000
0000
0000
0F00
0F00
03C0
03C0
0000
0000
F03C
F03C
F03C
F03C
F33C
F33C
F33C
F33C
F33C
F33C
FFFC
FFFC
3CF0
3CF0
0000
0000
0000
0000
0000
0000
ENDCHAR
STARTCHAR u0050
ENCODING 80
SWIDTH 1332 0
DWIDTH 16 0
BBX 16 32 0 -8
BITMAP
0000
0000
0000
0000
0000
0000
FFF0
FFF0
3C3C
3C3C
3C3C
3C3C
3C3C
3C3C
3FF0
3FF0
3C00
3C00
3C00
3C00
3C00
3C00
3C00
3C00
FF00
FF00
0000
0000
0000
0000
0000
0000
ENDCHAR
STARTCHAR u00C1
ENCODING 193
SWIDTH 1332 0
DWIDTH 16 0
BBX 16 32 0 -8
BITMAP
0000
0000
3C00
3C00
F000
F000
0300
0300
0FC0
0FC0
3CF0
3CF0
F03C
F03C
F03C
F03C
FFFC
FFFC
F03C
F03C
F03C
F03C
F03C
F03C
F03C
F03C
0000
0000
0000
0000
0000
0000
ENDCHAR
STARTCHAR u0120
ENCODING 288
SWIDTH 1332 0
DWIDTH 16 0
BBX 16 32 0 -8
BITMAP
0000
0000
03C0
03C0
0000
0000
0FF0
0FF0
3C3C
3C3C
F00C
F00C
F000
F000
F000
F000
F3FC
F3FC
F03C
F03C
F03C
F03C
3C3C
3C3C
0FCC
0FCC
0000
0000
0000
0000
0000
0000
ENDCHAR
STARTCHAR u1E0B
ENCODING 7691
SWIDTH 1332 0
DWIDTH 16 0
BBX 16 32 0 -8
BITMAP
0000
0000
03C0
03C0
0000
0000
03F0
03F0
00F0
00F0
00F0
00F0
0FF0
0FF0
3CF0
3CF0
F0F0
F0F0
F0F0
F0F0
F0F0
F0F0
F0F0
F0F0
3F3C
3F3C
0000
0000
0000
0000
0000
0000
ENDCHAR
STARTCHAR u2555
ENCODING 9557
SWIDTH 1332 0
DWIDTH 16 0
BBX 16 32 0 -8
BITMAP
0000
0000
0000
0000
0000
0000
0000
0000
0000
0000
FFC0
FFC0
03C0
03C0
FFC0
FFC0
03C0
03C0
03C0
03C0
03C0
03C0
03C0
03C0
03C0
03C0
03C0
03C0
03C0
03C0
03C0
03C0
ENDCHAR
STARTCHAR u251C
ENCODING 9500
SWIDTH 1332 0
DWIDTH 16 0
BBX 16 32 0 -8
BITMAP
03C0
03C0
03C0
03C0
03C0
03C0
03C0
03C0
03C0
03C0
03C0
03C0
03C0
03C0
03FF
03FF
03C0
03C0
03C0
03C0
03C0
03C0
03C0
03C0
03C0
03C0
03C0
03C0
03C0
03C0
03C0
03C0
ENDCHAR
STARTCHAR u0077
ENCODING 119
SWIDTH 1332 0
DWIDTH 16 0
BBX 16 32 0 -8
BITMAP
0000
0000
0000
0000
0000
0000
0000
0000
0000
0000
0000
0000
F03C
F03C
F03C
F03C
F33C
F33C
F33C
F33C
F33C
F33C
FFFC
FFFC
3CF0
3CF0
0000
0000
0000
0000
0000
0000
ENDCHAR
STARTCHAR u0063
ENCODING 99
SWIDTH 1332 0
DWIDTH 16 0
BBX 16 32 0 -8
BITMAP
0000
0000
0000
0000
0000
0000
0000
0000
0000
0000
0000
0000
3FF0
3FF0
F03C
F03C
F000
F000
F000
F000
F000
F000
F03C
F03C
3FF0
3FF0
0000
0000
0000
0000
0000
0000
ENDCHAR
STARTCHAR u00F4
ENCODING 244
SWIDTH 1332 0
DWIDTH 16 0
BBX 16 32 0 -8
BITMAP
0000
0000
0000
0000
0300
0300
0FC0
0FC0
3CF0
3CF0
0000
0000
3FF0
3FF0
F03C
F03C
F03C
F03C
F03C
F03C
F03C
F03C
F03C
F03C
3FF0
3FF0
0000
0000
0000
0000
0000
0000
ENDCHAR
STARTCHAR u0048
ENCODING 72
SWIDTH 1332 0
DWIDTH 16 0
BBX 16 32 0 -8
BITMAP
0000
0000
0000
0000
0000
0000
F03C
F03C
F03C
F03C
F03C
F03C
F03C
F03C
FFFC
FFFC
F03C
F03C
F03C
F03C
F03C
F03C
F03C
F03C
F03C
F03C
0000
0000
0000
0000
0000
0000
ENDCHAR
STARTCHAR u00FF
ENCODING 255
SWIDTH 1332 0
DWIDTH 16 0
BBX 16 32 0 -8
BITMAP
0000
0000
0000
0000
F03C
F03C
0000
0000
0000
0000
F03C
F03C
F03C
F03C
F03C
F03C
F03C
F03C
F03C
F03C
F03C
F03C
3FFC
3FFC
003C
003C
00F0
00F0
3FC0
3FC0
0000
0000
ENDCHAR
STARTCHAR u00F6
ENCODING 246
SWIDTH 1332 0
DWIDTH 16 0
BBX 16 32 0 -8
BITMAP
0000
0000
0000
0000
0000
0000
F03C
F03C
0000
0000
0000
0000
3FF0
3FF0
F03C
F03C
F03C
F03C
F03C
F03C
F03C
F03C
F03C
F03C
3FF0
3FF0
0000
0000
0000
0000
0000
0000
ENDCHAR
STARTCHAR u1E84
ENCODING 7812
SWIDTH 1332 0
DWIDTH 16 0
BBX 16 32 0 -8
BITMAP
0000
0000
F03C
F03C
0000
0000
F03C
F03C
F03C
F03C
F03C
F03C
F03C
F03C
F33C
F33C
F33C
F33C
F33C
F33C
FFFC
FFFC
FCFC
FCFC
3CF0
3CF0
0000
0000
0000
0000
0000
0000
ENDCHAR
STARTCHAR u004A
ENCODING 74
SWIDTH 1332 0
DWIDTH 16 0
BBX 16 32 0 -8
BITMAP
0000
0000
0000
0000
0000
0000
03FC
03FC
00F0
00F0
00F0
00F0
00F0
00F0
00F0
00F0
00F0
00F0
F0F0
F0F0
F0F0
F0F0
F0F0
F0F0
3FC0
3FC0
0000
0000
0000
0000
0000
0000
ENDCHAR
STARTCHAR u00B6
ENCODING 182
SWIDTH 1332 0
DWIDTH 16 0
BBX 16 32 0 -8
BITMAP
0000
0000
0000
0000
3FFF
3FFF
F3CF
F3CF
F3CF
F3CF
F3CF
F3CF
3FCF
3FCF
03CF
03CF
03CF
03CF
03CF
03CF
03CF
03CF
03CF
03CF
0000
0000
0000
0000
0000
0000
0000
0000
ENDCHAR
STARTCHAR u1E0A
ENCODING 7690
SWIDTH 1332 0
DWIDTH 16 0
BBX 16 32 0 -8
BITMAP
0000
0000
0F00
0F00
0000
0000
FFC0
FFC0
3CF0
3CF0
3C3C
3C3C
3C3C
3C3C
3C3C
3C3C
3C3C
3C3C
3C3C
3C3C
3C3C
3C3C
3CF0
3CF0
FFC0
FFC0
0000
0000
0000
0000
0000
0000
ENDCHAR
STARTCHAR u003D
ENCODING 61
SWIDTH 1332 0
DWIDTH 16 0
BBX 16 32 0 -8
BITMAP
0000
0000
0000
0000
0000
0000
0000
0000
0000
0000
0000
0000
3FFC
3FFC
0000
0000
0000
0000
3FFC
3FFC
0000
0000
0000
0000
0000
0000
0000
0000
0000
0000
0000
0000
ENDCHAR
STARTCHAR u00E6
ENCODING 230
SWIDTH 1332 0
DWIDTH 16 0
BBX 16 32 0 -8
BITMAP
0000
0000
0000
0000
0000
0000
0000
0000
0000
0000
0000
0000
FCF0
FCF0
0F3C
0F3C
0F3C
0F3C
3FFC
3FFC
F3C0
F3C0
F3C0
F3C0
3CFC
3CFC
0000
0000
0000
0000
0000
0000
ENDCHAR
STARTCHAR u20AC
ENCODING 8364
SWIDTH 1332 0
DWIDTH 16 0
BBX 16 32 0 -8
BITMAP
0000
0000
0000
0000
0000
0000
0300
0300
3FF0
3FF0
F33C
F33C
F300
F300
F300
F300
F300
F300
F33C
F33C
3FF0
3FF0
0300
0300
0000
0000
0000
0000
0000
0000
0000
0000
ENDCHAR
STARTCHAR u006C
ENCODING 108
SWIDTH 1332 0
DWIDTH 16 0
BBX 16 32 0 -8
BITMAP
0000
0000
0000
0000
0000
0000
0FC0
0FC0
03C0
03C0
03C0
03C0
03C0
03C0
03C0
03C0
03C0
03C0
03C0
03C0
03C0
03C0
03C0
03C0
0FF0
0FF0
0000
0000
0000
0000
0000
0000
ENDCHAR
STARTCHAR u0073
ENCODING 115
SWIDTH 1332 0
DWIDTH 16 0
BBX 16 32 0 -8
BITMAP
0000
0000
0000
0000
0000
0000
0000
0000
0000
0000
0000
0000
3FF0
3FF0
F03C
F03C
3C00
3C00
0FC0
0FC0
00F0
00F0
F03C
F03C
3FF0
3FF0
0000
0000
0000
0000
0000
0000
ENDCHAR
STARTCHAR u1E40
ENCODING 7744
SWIDTH 1332 0
DWIDTH 16 0
BBX 16 32 0 -8
BITMAP
0000
0000
0F00
0F00
0000
0000
F03C
F03C
FCFC
FCFC
FFFC
FFFC
FFFC
FFFC
F33C
F33C
F03C
F03C
F03C
F03C
F03C
F03C
F03C
F03C
F03C
F03C
0000
0000
0000
0000
0000
0000
ENDCHAR
STARTCHAR u005C
ENCODING 92
SWIDTH 1332 0
DWIDTH 16 0
BBX 16 32 0 -8
BITMAP
0000
0000
0000
0000
0000
0000
0000
0000
C000
C000
F000
F000
FC00
FC00
3F00
3F00
0FC0
0FC0
03F0
03F0
00FC
00FC
003C
003C
000C
000C
0000
0000
0000
0000
0000
0000
ENDCHAR
STARTCHAR u0067
ENCODING 103
SWIDTH 1332 0
DWIDTH 16 0
BBX 16 32 0 -8
BITMAP
0000
0000
0000
0000
0000
0000
0000
0000
0000
0000
0000
0000
3F3C
3F3C
F0F0
F0F0
F0F0
F0F0
F0F0
F0F0
F0F0
F0F0
F0F0
F0F0
3FF0
3FF0
00F0
00F0
F0F0
F0F0
3FC0
3FC0
ENDCHAR
STARTCHAR u2510
ENCODING 9488
SWIDTH 1332 0
DWIDTH 16 0
BBX 16 32 0 -8
BITMAP
0000
0000
0000
0000
0000
0000
0000
0000
0000
0000
0000
0000
0000
0000
FFC0
FFC0
03C0
03C0
03C0
03C0
03C0
03C0
03C0
03C0
03C0
03C0
03C0
03C0
03C0
03C0
03C0
03C0
ENDCHAR
STARTCHAR u00C9
ENCODING 201
SWIDTH 1332 0
DWIDTH 16 0
BBX 16 32 0 -8
BITMAP
0000
0000
00F0
00F0
03C0
03C0
0000
0000
FFFC
FFFC
3C3C
3C3C
3C0C
3C0C
3CC0
3CC0
3FC0
3FC0
3CC0
3CC0
3C0C
3C0C
3C3C
3C3C
FFFC
FFFC
0000
0000
0000
0000
0000
0000
ENDCHAR
STARTCHAR u255D
ENCODING 9565
SWIDTH 1332 0
DWIDTH 16 0
BBX 16 32 0 -8
BITMAP
0F3C
0F3C
0F3C
0F3C
0F3C
0F3C
0F3C
0F3C
0F3C
0F3C
FF3C
FF3C
003C
003C
FFFC
FFFC
0000
0000
0000
0000
0000
0000
0000
0000
0000
0000
0000
0000
0000
0000
0000
0000
ENDCHAR
STARTCHAR u255A
ENCODING 9562
SWIDTH 1332 0
DWIDTH 16 0
BBX 16 32 0 -8
BITMAP
0F3C
0F3C
0F3C
0F3C
0F3C
0F3C
0F3C
0F3C
0F3C
0F3C
0F3F
0F3F
0F00
0F00
0FFF
0FFF
0000
0000
0000
0000
0000
0000
0000
0000
0000
0000
0000
0000
0000
0000
0000
0000
ENDCHAR
STARTCHAR u00E8
ENCODING 232
SWIDTH 1332 0
DWIDTH 16 0
BBX 16 32 0 -8
BITMAP
0000
0000
0000
0000
3C00
3C00
0F00
0F00
03C0
03C0
0000
0000
3FF0
3FF0
F03C
F03C
FFFC
FFFC
F000
F000
F000
F000
F03C
F03C
3FF0
3FF0
0000
0000
0000
0000
0000
0000
ENDCHAR
STARTCHAR u0071
ENCODING 113
SWIDTH 1332 0
DWIDTH 16 0
BBX 16 32 0 -8
BITMAP
0000
0000
0000
0000
0000
0000
0000
0000
0000
0000
0000
0000
3F3C
3F3C
F0F0
F0F0
F0F0
F0F0
F0F0
F0F0
F0F0
F0F0
F0F0
F0F0
3FF0
3FF0
00F0
00F0
00F0
00F0
03FC
03FC
ENDCHAR
STARTCHAR u255F
ENCODING 9567
SWIDTH 1332 0
DWIDTH 16 0
BBX 16 32 0 -8
BITMAP
0F3C
0F3C
0F3C
0F3C
0F3C
0F3C
0F3C
0F3C
0F3C
0F3C
0F3C
0F3C
0F3C
0F3C
0F3F
0F3F
0F3C
0F3C
0F3C
0F3C
0F3C
0F3C
0F3C
0F3C
0F3C
0F3C
0F3C
0F3C
0F3C
0F3C
0F3C
0F3C
ENDCHAR
STARTCHAR u00E1
ENCODING 225
SWIDTH 1332 0
DWIDTH 16 0
BBX 16 32 0 -8
BITMAP
0000
0000
0000
0000
03C0
03C0
0F00
0F00
3C00
3C00
0000
0000
3FC0
3FC0
00F0
00F0
3FF0
3FF0
F0F0
F0F0
F0F0
F0F0
F0F0
F0F0
3F3C
3F3C
0000
0000
0000
0000
0000
0000
ENDCHAR
STARTCHAR u00CF
ENCODING 207
SWIDTH 1332 0
DWIDTH 16 0
BBX 16 32 0 -8
BITMAP
0000
0000
0000
0000
3C3C
3C3C
0000
0000
0FF0
0FF0
03C0
03C0
03C0
03C0
03C0
03C0
03C0
03C0
03C0
03C0
03C0
03C0
03C0
03C0
0FF0
0FF0
0000
0000
0000
0000
0000
0000
ENDCHAR
STARTCHAR u010A
ENCODING 266
SWIDTH 1332 0
DWIDTH 16 0
BBX 16 32 0 -8
BITMAP
0000
0000
03C0
03C0
0000
0000
0FF0
0FF0
3C3C
3C3C
F00C
F00C
F000
F000
F000
F000
F000
F000
F000
F000
F00C
F00C
3C3C
3C3C
0FF0
0FF0
0000
0000
0000
0000
0000
0000
ENDCHAR
STARTCHAR u005B
ENCODING 91
SWIDTH 1332 0
DWIDTH 16 0
BBX 16 32 0 -8
BITMAP
0000
0000
0000
0000
0000
0000
0FF0
0FF0
0F00
0F00
0F00
0F00
0F00
0F00
0F00
0F00
0F00
0F00
0F00
0F00
0F00
0F00
0F00
0F00
0FF0
0FF0
0000
0000
0000
0000
0000
0000
ENDCHAR
STARTCHAR u00A7
ENCODING 167
SWIDTH 1332 0
DWIDTH 16 0
BBX 16 32 0 -8
BITMAP
0000
0000
3FF0
3FF0
F03C
F03C
3C00
3C00
0FC0
0FC0
3CF0
3CF0
F03C
F03C
F03C
F03C
3CF0
3CF0
0FC0
0FC0
00F0
00F0
F03C
F03C
3FF0
3FF0
0000
0000
0000
0000
0000
0000
ENDCHAR
STARTCHAR u0030
ENCODING 48
SWIDTH 1332 0
DWIDTH 16 0
BBX 16 32 0 -8
BITMAP
0000
0000
0000
0000
0000
0000
0FC0
0FC0
3CF0
3CF0
F03C
F03C
F03C
F03C
F33C
F33C
F33C
F33C
F03C
F03C
F03C
F03C
3CF0
3CF0
0FC0
0FC0
0000
0000
0000
0000
0000
0000
ENDCHAR
STARTCHAR u006B
ENCODING 107
SWIDTH 1332 0
DWIDTH 16 0
BBX 16 32 0 -8
BITMAP
0000
0000
0000
0000
0000
0000
FC00
FC00
3C00
3C00
3C00
3C00
3C3C
3C3C
3CF0
3CF0
3FC0
3FC0
3FC0
3FC0
3CF0
3CF0
3C3C
3C3C
FC3C
FC3C
0000
0000
0000
0000
0000
0000
ENDCHAR
STARTCHAR u1E02
ENCODING 7682
SWIDTH 1332 0
DWIDTH 16 0
BBX 16 32 0 -8
BITMAP
0000
0000
0F00
0F00
0000
0000
FFF0
FFF0
3C3C
3C3C
3C3C
3C3C
3C3C
3C3C
3FF0
3FF0
3C3C
3C3C
3C3C
3C3C
3C3C
3C3C
3C3C
3C3C
FFF0
FFF0
0000
0000
0000
0000
0000
0000
ENDCHAR
STARTCHAR u0057
ENCODING 87
SWIDTH 1332 0
DWIDTH 16 0
BBX 16 32 0 -8
BITMAP
0000
0000
0000
0000
0000
0000
F03C
F03C
F03C
F03C
F03C
F03C
F03C
F03C
F33C
F33C
F33C
F33C
F33C
F33C
FFFC
FFFC
FCFC
FCFC
3CF0
3CF0
0000
0000
0000
0000
0000
0000
ENDCHAR
STARTCHAR u004D
ENCODING 77
SWIDTH 1332 0
DWIDTH 16 0
BBX 16 32 0 -8
BITMAP
0000
0000
0000
0000
0000
0000
F03C
F03C
FCFC
FCFC
FFFC
FFFC
FFFC
FFFC
F33C
F33C
F03C
F03C
F03C
F03C
F03C
F03C
F03C
F03C
F03C
F03C
0000
0000
0000
0000
0000
0000
ENDCHAR
STARTCHAR u00D6
ENCODING 214
SWIDTH 1332 0
DWIDTH 16 0
BBX 16 32 0 -8
BITMAP
0000
0000
0000
0000
F03C
F03C
0000
0000
3FF0
3FF0
F03C
F03C
F03C
F03C
F03C
F03C
F03C
F03C
F03C
F03C
F03C
F03C
F03C
F03C
3FF0
3FF0
0000
0000
0000
0000
0000
0000
ENDCHAR
STARTCHAR u007B
ENCODING 123
SWIDTH 1332 0
DWIDTH 16 0
BBX 16 32 0 -8
BITMAP
0000
0000
0000
0000
0000
0000
00FC
00FC
03C0
03C0
03C0
03C0
03C0
03C0
3F00
3F00
03C0
03C0
03C0
03C0
03C0
03C0
03C0
03C0
00FC
00FC
0000
0000
0000
0000
0000
0000
ENDCHAR
STARTCHAR u00DD
ENCODING 221
SWIDTH 1332 0
DWIDTH 16 0
BBX 16 32 0 -8
BITMAP
0000
0000
00F0
00F0
03C0
03C0
0000
0000
3C3C
3C3C
3C3C
3C3C
3C3C
3C3C
3C3C
3C3C
0FF0
0FF0
03C0
03C0
03C0
03C0
03C0
03C0
0FF0
0FF0
0000
0000
0000
0000
0000
0000
ENDCHAR
STARTCHAR u0032
ENCODING 50
SWIDTH 1332 0
DWIDTH 16 0
BBX 16 32 0 -8
BITMAP
0000
0000
0000
0000
0000
0000
3FF0
3FF0
F03C
F03C
003C
003C
00F0
00F0
03C0
03C0
0F00
0F00
3C00
3C00
F000
F000
F03C
F03C
FFFC
FFFC
0000
0000
0000
0000
0000
0000
ENDCHAR
STARTCHAR u0027
ENCODING 39
SWIDTH 1332 0
DWIDTH 16 0
BBX 16 32 0 -8
BITMAP
0000
0000
0000
0000
0F00
0F00
0F00
0F00
0F00
0F00
3C00
3C00
0000
0000
0000
0000
0000
0000
0000
0000
0000
0000
0000
0000
0000
0000
0000
0000
0000
0000
0000
0000
ENDCHAR
STARTCHAR u2556
ENCODING 9558
SWIDTH 1332 0
DWIDTH 16 0
BBX 16 32 0 -8
BITMAP
0000
0000
0000
0000
0000
0000
0000
0000
0000
0000
0000
0000
0000
0000
FFFC
FFFC
0F3C
0F3C
0F3C
0F3C
0F3C
0F3C
0F3C
0F3C
0F3C
0F3C
0F3C
0F3C
0F3C
0F3C
0F3C
0F3C
ENDCHAR
STARTCHAR u00D2
ENCODING 210
SWIDTH 1332 0
DWIDTH 16 0
BBX 16 32 0 -8
BITMAP
0000
0000
0F00
0F00
03C0
03C0
0000
0000
3FF0
3FF0
F03C
F03C
F03C
F03C
F03C
F03C
F03C
F03C
F03C
F03C
F03C
F03C
F03C
F03C
3FF0
3FF0
0000
0000
0000
0000
0000
0000
ENDCHAR
STARTCHAR u0040
ENCODING 64
SWIDTH 1332 0
DWIDTH 16 0
BBX 16 32 0 -8
BITMAP
0000
0000
0000
0000
0000
0000
0000
0000
3FF0
3FF0
F03C
F03C
F03C
F03C
F3FC
F3FC
F3FC
F3FC
F3FC
F3FC
F3F0
F3F0
F000
F000
3FF0
3FF0
0000
0000
0000
0000
0000
0000
ENDCHAR
STARTCHAR u0061
ENCODING 97
SWIDTH 1332 0
DWIDTH 16 0
BBX 16 32 0 -8
BITMAP
0000
0000
0000
0000
0000
0000
0000
0000
0000
0000
0000
0000
3FC0
3FC0
00F0
00F0
3FF0
3FF0
F0F0
F0F0
F0F0
F0F0
F0F0
F0F0
3F3C
3F3C
0000
0000
0000
0000
0000
0000
ENDCHAR
STARTCHAR u1E60
ENCODING 7776
SWIDTH 1332 0
DWIDTH 16 0
BBX 16 32 0 -8
BITMAP
0000
0000
03C0
03C0
0000
0000
3FF0
3FF0
F03C
F03C
F03C
F03C
3C00
3C00
0FC0
0FC0
00F0
00F0
003C
003C
F03C
F03C
F03C
F03C
3FF0
3FF0
0000
0000
0000
0000
0000
0000
ENDCHAR
STARTCHAR u0029
ENCODING 41
SWIDTH 1332 0
DWIDTH 16 0
BBX 16 32 0 -8
BITMAP
0000
0000
0000
0000
0000
0000
0F00
0F00
03C0
03C0
00F0
00F0
00F0
00F0
00F0
00F0
00F0
00F0
00F0
00F0
00F0
00F0
03C0
03C0
0F00
0F00
0000
0000
0000
0000
0000
0000
ENDCHAR
STARTCHAR u0034
ENCODING 52
SWIDTH 1332 0
DWIDTH 16 0
BBX 16 32 0 -8
BITMAP
0000
0000
0000
0000
0000
0000
00F0
00F0
03F0
03F0
0FF0
0FF0
3CF0
3CF0
F0F0
F0F0
FFFC
FFFC
00F0
00F0
00F0
00F0
00F0
00F0
03FC
03FC
0000
0000
0000
0000
0000
0000
ENDCHAR
STARTCHAR u2566
ENCODING 9574
SWIDTH 1332 0
DWIDTH 16 0
BBX 16 32 0 -8
BITMAP
0000
0000
0000
0000
0000
0000
0000
0000
0000
0000
FFFF
FFFF
0000
0000
FF3F
FF3F
0F3C
0F3C
0F3C
0F3C
0F3C
0F3C
0F3C
0F3C
0F3C
0F3C
0F3C
0F3C
0F3C
0F3C
0F3C
0F3C
ENDCHAR
STARTCHAR u00AD
ENCODING 173
SWIDTH 1332 0
DWIDTH 16 0
BBX 16 32 0 -8
BITMAP
0000
0000
0000
0000
0000
0000
0000
0000
0000
0000
0000
0000
0000
0000
FFFC
FFFC
0000
0000
0000
0000
0000
0000
0000
0000
0000
0000
0000
0000
0000
0000
0000
0000
ENDCHAR
STARTCHAR u2567
ENCODING 9575
SWIDTH 1332 0
DWIDTH 16 0
BBX 16 32 0 -8
BITMAP
03C0
03C0
03C0
03C0
03C0
03C0
03C0
03C0
03C0
03C0
FFFF
FFFF
0000
0000
FFFF
FFFF
0000
0000
0000
0000
0000
0000
0000
0000
0000
0000
0000
0000
0000
0000
0000
0000
ENDCHAR
STARTCHAR u0038
ENCODING 56
SWIDTH 1332 0
DWIDTH 16 0
BBX 16 32 0 -8
BITMAP
0000
0000
0000
0000
0000
0000
3FF0
3FF0
F03C
F03C
F03C
F03C
F03C
F03C
3FF0
3FF0
F03C
F03C
F03C
F03C
F03C
F03C
F03C
F03C
3FF0
3FF0
0000
0000
0000
0000
0000
0000
ENDCHAR
STARTCHAR u2502
ENCODING 9474
SWIDTH 1332 0
DWIDTH 16 0
BBX 16 32 0 -8
BITMAP
03C0
03C0
03C0
03C0
03C0
03C0
03C0
03C0
03C0
03C0
03C0
03C0
03C0
03C0
03C0
03C0
03C0
03C0
03C0
03C0
03C0
03C0
03C0
03C0
03C0
03C0
03C0
03C0
03C0
03C0
03C0
03C0
ENDCHAR
STARTCHAR u00E5
ENCODING 229
SWIDTH 1332 0
DWIDTH 16 0
BBX 16 32 0 -8
BITMAP
0000
0000
0000
0000
0FC0
0FC0
3CF0
3CF0
0FC0
0FC0
0000
0000
3FC0
3FC0
00F0
00F0
3FF0
3FF0
F0F0
F0F0
F0F0
F0F0
F0F0
F0F0
3F3C
3F3C
0000
0000
0000
0000
0000
0000
ENDCHAR
STARTCHAR u002D
ENCODING 45
SWIDTH 1332 0
DWIDTH 16 0
BBX 16 32 0 -8
BITMAP
0000
0000
0000
0000
0000
0000
0000
0000
0000
0000
0000
0000
0000
0000
0000
0000
FFFC
FFFC
0000
0000
0000
0000
0000
0000
0000
0000
0000
0000
0000
0000
0000
0000
ENDCHAR
STARTCHAR u0042
ENCODING 66
SWIDTH 1332 0
DWIDTH 16 0
BBX 16 32 0 -8
BITMAP
0000
0000
0000
0000
0000
0000
FFF0
FFF0
3C3C
3C3C
3C3C
3C3C
3C3C
3C3C
3FF0
3FF0
3C3C
3C3C
3C3C
3C3C
3C3C
3C3C
3C3C
3C3C
FFF0
FFF0
0000
0000
0000
0000
0000
0000
ENDCHAR
STARTCHAR u0036
ENCODING 54
SWIDTH 1332 0
DWIDTH 16 0
BBX 16 32 0 -8
BITMAP
0000
0000
0000
0000
0000
0000
0FC0
0FC0
3C00
3C00
F000
F000
F000
F000
FFF0
FFF0
F03C
F03C
F03C
F03C
F03C
F03C
F03C
F03C
3FF0
3FF0
0000
0000
0000
0000
0000
0000
ENDCHAR
STARTCHAR u00ED
ENCODING 237
SWIDTH 1332 0
DWIDTH 16 0
BBX 16 32 0 -8
BITMAP
0000
0000
0000
0000
00F0
00F0
03C0
03C0
0F00
0F00
0000
0000
0FC0
0FC0
03C0
03C0
03C0
03C0
03C0
03C0
03C0
03C0
03C0
03C0
0FF0
0FF0
0000
0000
0000
0000
0000
0000
ENDCHAR
STARTCHAR u1E83
ENCODING 7811
SWIDTH 1332 0
DWIDTH 16 0
BBX 16 32 0 -8
BITMAP
0000
0000
0000
0000
0000
0000
00F0
00F0
03C0
03C0
0000
0000
F03C
F03C
F03C
F03C
F33C
F33C
F33C
F33C
F33C
F33C
FFFC
FFFC
3CF0
3CF0
0000
0000
0000
0000
0000
0000
ENDCHAR
STARTCHAR u0046
ENCODING 70
SWIDTH 1332 0
DWIDTH 16 0
BBX 16 32 0 -8
BITMAP
0000
0000
0000
0000
0000
0000
FFFC
FFFC
3C3C
3C3C
3C0C
3C0C
3CC0
3CC0
3FC0
3FC0
3CC0
3CC0
3C00
3C00
3C00
3C00
3C00
3C00
FF00
FF00
0000
0000
0000
0000
0000
0000
ENDCHAR
STARTCHAR u0044
ENCODING 68
SWIDTH 1332 0
DWIDTH 16 0
BBX 16 32 0 -8
BITMAP
0000
0000
0000
0000
0000
0000
FFC0
FFC0
3CF0
3CF0
3C3C
3C3C
3C3C
3C3C
3C3C
3C3C
3C3C
3C3C
3C3C
3C3C
3C3C
3C3C
3CF0
3CF0
FFC0
FFC0
0000
0000
0000
0000
0000
0000
ENDCHAR
STARTCHAR u0177
ENCODING 375
SWIDTH 1332 0
DWIDTH 16 0
BBX 16 32 0 -8
BITMAP
0000
0000
0000
0000
0300
0300
0FC0
0FC0
3CF0
3CF0
0000
0000
F03C
F03C
F03C
F03C
F03C
F03C
F03C
F03C
F03C
F03C
F03C
F03C
3FFC
3FFC
003C
003C
00F0
00F0
FFC0
FFC0
ENDCHAR
STARTCHAR u0058
ENCODING 88
SWIDTH 1332 0
DWIDTH 16 0
BBX 16 32 0 -8
BITMAP
0000
0000
0000
0000
0000
0000
F03C
F03C
F03C
F03C
3CF0
3CF0
3FF0
3FF0
0FC0
0FC0
0FC0
0FC0
3FF0
3FF0
3CF0
3CF0
F03C
F03C
F03C
F03C
0000
0000
0000
0000
0000
0000
ENDCHAR
STARTCHAR u0074
ENCODING 116
SWIDTH 1332 0
DWIDTH 16 0
BBX 16 32 0 -8
BITMAP
0000
0000
0000
0000
0000
0000
0300
0300
0F00
0F00
0F00
0F00
FFF0
FFF0
0F00
0F00
0F00
0F00
0F00
0F00
0F00
0F00
0F3C
0F3C
03F0
03F0
0000
0000
0000
0000
0000
0000
ENDCHAR
STARTCHAR u0064
ENCODING 100
SWIDTH 1332 0
DWIDTH 16 0
BBX 16 32 0 -8
BITMAP
0000
0000
0000
0000
0000
0000
03F0
03F0
00F0
00F0
00F0
00F0
0FF0
0FF0
3CF0
3CF0
F0F0
F0F0
F0F0
F0F0
F0F0
F0F0
F0F0
F0F0
3F3C
3F3C
0000
0000
0000
0000
0000
0000
ENDCHAR
STARTCHAR u2557
ENCODING 9559
SWIDTH 1332 0
DWIDTH 16 0
BBX 16 32 0 -8
BITMAP
0000
0000
0000
0000
0000
0000
0000
0000
0000
0000
FFFC
FFFC
003C
003C
FF3C
FF3C
0F3C
0F3C
0F3C
0F3C
0F3C
0F3C
0F3C
0F3C
0F3C
0F3C
0F3C
0F3C
0F3C
0F3C
0F3C
0F3C
ENDCHAR
STARTCHAR u2500
ENCODING 9472
SWIDTH 1332 0
DWIDTH 16 0
BBX 16 32 0 -8
BITMAP
0000
0000
0000
0000
0000
0000
0000
0000
0000
0000
0000
0000
0000
0000
FFFF
FFFF
0000
0000
0000
0000
0000
0000
0000
0000
0000
0000
0000
0000
0000
0000
0000
0000
ENDCHAR
STARTCHAR u00FC
ENCODING 252
SWIDTH 1332 0
DWIDTH 16 0
BBX 16 32 0 -8
BITMAP
0000
0000
0000
0000
0000
0000
F0F0
F0F0
0000
0000
0000
0000
F0F0
F0F0
F0F0
F0F0
F0F0
F0F0
F0F0
F0F0
F0F0
F0F0
F0F0
F0F0
3F3C
3F3C
0000
0000
0000
0000
0000
0000
ENDCHAR
STARTCHAR u0078
ENCODING 120
SWIDTH 1332 0
DWIDTH 16 0
BBX 16 32 0 -8
BITMAP
0000
0000
0000
0000
0000
0000
0000
0000
0000
0000
0000
0000
F03C
F03C
3CF0
3CF0
0FC0
0FC0
0FC0
0FC0
0FC0
0FC0
3CF0
3CF0
F03C
F03C
0000
0000
0000
0000
0000
0000
ENDCHAR
STARTCHAR u0053
ENCODING 83
SWIDTH 1332 0
DWIDTH 16 0
BBX 16 32 0 -8
BITMAP
0000
0000
0000
0000
0000
0000
3FF0
3FF0
F03C
F03C
F03C
F03C
3C00
3C00
0FC0
0FC0
00F0
00F0
003C
003C
F03C
F03C
F03C
F03C
3FF0
3FF0
0000
0000
0000
0000
0000
0000
ENDCHAR
STARTCHAR u004B
ENCODING 75
SWIDTH 1332 0
DWIDTH 16 0
BBX 16 32 0 -8
BITMAP
0000
0000
0000
0000
0000
0000
FC3C
FC3C
3C3C
3C3C
3C3C
3C3C
3CF0
3CF0
3FC0
3FC0
3FC0
3FC0
3CF0
3CF0
3C3C
3C3C
3C3C
3C3C
FC3C
FC3C
0000
0000
0000
0000
0000
0000
ENDCHAR
STARTCHAR u0028
ENCODING 40
SWIDTH 1332 0
DWIDTH 16 0
BBX 16 32 0 -8
BITMAP
0000
0000
0000
0000
0000
0000
00F0
00F0
03C0
03C0
0F00
0F00
0F00
0F00
0F00
0F00
0F00
0F00
0F00
0F00
0F00
0F00
03C0
03C0
00F0
00F0
0000
0000
0000
0000
0000
0000
ENDCHAR
STARTCHAR u00FA
ENCODING 250
SWIDTH 1332 0
DWIDTH 16 0
BBX 16 32 0 -8
BITMAP
0000
0000
0000
0000
03C0
03C0
0F00
0F00
3C00
3C00
0000
0000
F0F0
F0F0
F0F0
F0F0
F0F0
F0F0
F0F0
F0F0
F0F0
F0F0
F0F0
F0F0
3F3C
3F3C
0000
0000
0000
0000
0000
0000
ENDCHAR
STARTCHAR u00C0
ENCODING 192
SWIDTH 1332 0
DWIDTH 16 0
BBX 16 32 0 -8
BITMAP
0000
0000
00F0
00F0
003C
003C
0300
0300
0FC0
0FC0
3CF0
3CF0
F03C
F03C
F03C
F03C
FFFC
FFFC
F03C
F03C
F03C
F03C
F03C
F03C
F03C
F03C
0000
0000
0000
0000
0000
0000
ENDCHAR
STARTCHAR u0131
ENCODING 305
SWIDTH 1332 0
DWIDTH 16 0
BBX 16 32 0 -8
BITMAP
0000
0000
0000
0000
0000
0000
0000
0000
0000
0000
0000
0000
0FC0
0FC0
03C0
03C0
03C0
03C0
03C0
03C0
03C0
03C0
03C0
03C0
0FF0
0FF0
0000
0000
0000
0000
0000
0000
ENDCHAR
STARTCHAR u003B
ENCODING 59
SWIDTH 1332 0
DWIDTH 16 0
BBX 16 32 0 -8
BITMAP
0000
0000
0000
0000
0000
0000
0000
0000
0000
0000
03C0
03C0
03C0
03C0
0000
0000
0000
0000
0000
0000
03C0
03C0
03C0
03C0
0F00
0F00
0000
0000
0000
0000
0000
0000
ENDCHAR
STARTCHAR u0175
ENCODING 373
SWIDTH 1332 0
DWIDTH 16 0
BBX 16 32 0 -8
BITMAP
0000
0000
0000
0000
0300
0300
0FC0
0FC0
3CF0
3CF0
0000
0000
F03C
F03C
F03C
F03C
F33C
F33C
F33C
F33C
F33C
F33C
FFFC
FFFC
3CF0
3CF0
0000
0000
0000
0000
0000
0000
ENDCHAR
STARTCHAR u00D9
ENCODING 217
SWIDTH 1332 0
DWIDTH 16 0
BBX 16 32 0 -8
BITMAP
0000
0000
0F00
0F00
03C0
03C0
0000
0000
F03C
F03C
F03C
F03C
F03C
F03C
F03C
F03C
F03C
F03C
F03C
F03C
F03C
F03C
F03C
F03C
3FF0
3FF0
0000
0000
0000
0000
0000
0000
ENDCHAR
STARTCHAR u0035
ENCODING 53
SWIDTH 1332 0
DWIDTH 16 0
BBX 16 32 0 -8
BITMAP
0000
0000
0000
0000
0000
0000
FFFC
FFFC
F000
F000
F000
F000
F000
F000
FFF0
FFF0
003C
003C
003C
003C
003C
003C
F03C
F03C
3FF0
3FF0
0000
0000
0000
0000
0000
0000
ENDCHAR
STARTCHAR u2562
ENCODING 9570
SWIDTH 1332 0
DWIDTH 16 0
BBX 16 32 0 -8
BITMAP
0F3C
0F3C
0F3C
0F3C
0F3C
0F3C
0F3C
0F3C
0F3C
0F3C
0F3C
0F3C
0F3C
0F3C
FF3C
FF3C
0F3C
0F3C
0F3C
0F3C
0F3C
0F3C
0F3C
0F3C
0F3C
0F3C
0F3C
0F3C
0F3C
0F3C
0F3C
0F3C
ENDCHAR
STARTCHAR u00F5
ENCODING 245
SWIDTH 1332 0
DWIDTH 16 0
BBX 16 32 0 -8
BITMAP
0000
0000
0000
0000
0000
0000
3F3C
3F3C
F3F0
F3F0
0000
0000
3FF0
3FF0
F03C
F03C
F03C
F03C
F03C
F03C
F03C
F03C
F03C
F03C
3FF0
3FF0
0000
0000
0000
0000
0000
0000
ENDCHAR
STARTCHAR u00EF
ENCODING 239
SWIDTH 1332 0
DWIDTH 16 0
BBX 16 32 0 -8
BITMAP
0000
0000
0000
0000
0000
0000
3C3C
3C3C
0000
0000
0000
0000
0FC0
0FC0
03C0
03C0
03C0
03C0
03C0
03C0
03C0
03C0
03C0
03C0
0FF0
0FF0
0000
0000
0000
0000
0000
0000
ENDCHAR
STARTCHAR u010B
ENCODING 267
SWIDTH 1332 0
DWIDTH 16 0
BBX 16 32 0 -8
BITMAP
0000
0000
0000
0000
0000
0000
0000
0000
03C0
03C0
0000
0000
3FF0
3FF0
F03C
F03C
F000
F000
F000
F000
F000
F000
F03C
F03C
3FF0
3FF0
0000
0000
0000
0000
0000
0000
ENDCHAR
STARTCHAR u007A
ENCODING 122
SWIDTH 1332 0
DWIDTH 16 0
BBX 16 32 0 -8
BITMAP
0000
0000
0000
0000
0000
0000
0000
0000
0000
0000
0000
0000
FFFC
FFFC
F0F0
F0F0
03C0
03C0
0F00
0F00
3C00
3C00
F03C
F03C
FFFC
FFFC
0000
0000
0000
0000
0000
0000
ENDCHAR
STARTCHAR u2560
ENCODING 9568
SWIDTH 1332 0
DWIDTH 16 0
BBX 16 32 0 -8
BITMAP
0F3C
0F3C
0F3C
0F3C
0F3C
0F3C
0F3C
0F3C
0F3C
0F3C
0F3F
0F3F
0F00
0F00
0F3F
0F3F
0F3C
0F3C
0F3C
0F3C
0F3C
0F3C
0F3C
0F3C
0F3C
0F3C
0F3C
0F3C
0F3C
0F3C
0F3C
0F3C
ENDCHAR
STARTCHAR u252C
ENCODING 9516
SWIDTH 1332 0
DWIDTH 16 0
BBX 16 32 0 -8
BITMAP
0000
0000
0000
0000
0000
0000
0000
0000
0000
0000
0000
0000
0000
0000
FFFF
FFFF
03C0
03C0
03C0
03C0
03C0
03C0
03C0
03C0
03C0
03C0
03C0
03C0
03C0
03C0
03C0
03C0
ENDCHAR
STARTCHAR u00CD
ENCODING 205
SWIDTH 1332 0
DWIDTH 16 0
BBX 16 32 0 -8
BITMAP
0000
0000
00F0
00F0
03C0
03C0
0000
0000
0FF0
0FF0
03C0
03C0
03C0
03C0
03C0
03C0
03C0
03C0
03C0
03C0
03C0
03C0
03C0
03C0
0FF0
0FF0
0000
0000
0000
0000
0000
0000
ENDCHAR
STARTCHAR u002A
ENCODING 42
SWIDTH 1332 0
DWIDTH 16 0
BBX 16 32 0 -8
BITMAP
0000
0000
0000
0000
0000
0000
0000
0000
0000
0000
0000
0000
3C3C
3C3C
0FF0
0FF0
FFFF
FFFF
0FF0
0FF0
3C3C
3C3C
0000
0000
0000
0000
0000
0000
0000
0000
0000
0000
ENDCHAR
STARTCHAR u00DB
ENCODING 219
SWIDTH 1332 0
DWIDTH 16 0
BBX 16 32 0 -8
BITMAP
0000
0000
0FC0
0FC0
3CF0
3CF0
0000
0000
F03C
F03C
F03C
F03C
F03C
F03C
F03C
F03C
F03C
F03C
F03C
F03C
F03C
F03C
F03C
F03C
3FF0
3FF0
0000
0000
0000
0000
0000
0000
ENDCHAR
STARTCHAR u002E
ENCODING 46
SWIDTH 1332 0
DWIDTH 16 0
BBX 16 32 0 -8
BITMAP
0000
0000
0000
0000
0000
0000
0000
0000
0000
0000
0000
0000
0000
0000
0000
0000
0000
0000
0000
0000
0000
0000
03C0
03C0
03C0
03C0
0000
0000
0000
0000
0000
0000
ENDCHAR
STARTCHAR u255C
ENCODING 9564
SWIDTH 1332 0
DWIDTH 16 0
BBX 16 32 0 -8
BITMAP
0F3C
0F3C
0F3C
0F3C
0F3C
0F3C
0F3C
0F3C
0F3C
0F3C
0F3C
0F3C
0F3C
0F3C
FFFC
FFFC
0000
0000
0000
0000
0000
0000
0000
0000
0000
0000
0000
0000
0000
0000
0000
0000
ENDCHAR
STARTCHAR u00EB
ENCODING 235
SWIDTH 1332 0
DWIDTH 16 0
BBX 16 32 0 -8
BITMAP
0000
0000
0000
0000
0000
0000
F03C
F03C
0000
0000
0000
0000
3FF0
3FF0
F03C
F03C
FFFC
FFFC
F000
F000
F000
F000
F03C
F03C
3FF0
3FF0
0000
0000
0000
0000
0000
0000
ENDCHAR
STARTCHAR u0069
ENCODING 105
SWIDTH 1332 0
DWIDTH 16 0
BBX 16 32 0 -8
BITMAP
0000
0000
0000
0000
0000
0000
03C0
03C0
03C0
03C0
0000
0000
0FC0
0FC0
03C0
03C0
03C0
03C0
03C0
03C0
03C0
03C0
03C0
03C0
0FF0
0FF0
0000
0000
0000
0000
0000
0000
ENDCHAR
STARTCHAR u255B
ENCODING 9563
SWIDTH 1332 0
DWIDTH 16 0
BBX 16 32 0 -8
BITMAP
03C0
03C0
03C0
03C0
03C0
03C0
03C0
03C0
03C0
03C0
FFC0
FFC0
03C0
03C0
FFC0
FFC0
0000
0000
0000
0000
0000
0000
0000
0000
0000
0000
0000
0000
0000
0000
0000
0000
ENDCHAR
STARTCHAR u1E6B
ENCODING 7787
SWIDTH 1332 0
DWIDTH 16 0
BBX 16 32 0 -8
BITMAP
0000
0000
0F00
0F00
0000
0000
0300
0300
0F00
0F00
0F00
0F00
FFF0
FFF0
0F00
0F00
0F00
0F00
0F00
0F00
0F00
0F00
0F3C
0F3C
03F0
03F0
0000
0000
0000
0000
0000
0000
ENDCHAR
STARTCHAR u1E1F
ENCODING 7711
SWIDTH 1332 0
DWIDTH 16 0
BBX 16 32 0 -8
BITMAP
0000
0000
03C0
03C0
0000
0000
03F0
03F0
0F3C
0F3C
0F0C
0F0C
0F00
0F00
3FC0
3FC0
0F00
0F00
0F00
0F00
0F00
0F00
0F00
0F00
3FC0
3FC0
0000
0000
0000
0000
0000
0000
ENDCHAR
STARTCHAR u0055
ENCODING 85
SWIDTH 1332 0
DWIDTH 16 0
BBX 16 32 0 -8
BITMAP
0000
0000
0000
0000
0000
0000
F03C
F03C
F03C
F03C
F03C
F03C
F03C
F03C
F03C
F03C
F03C
F03C
F03C
F03C
F03C
F03C
F03C
F03C
3FF0
3FF0
0000
0000
0000
0000
0000
0000
ENDCHAR
STARTCHAR u0024
ENCODING 36
SWIDTH 1332 0
DWIDTH 16 0
BBX 16 32 0 -8
BITMAP
0000
0000
03C0
03C0
03C0
03C0
3FF0
3FF0
F03C
F03C
F00C
F00C
F000
F000
3FF0
3FF0
003C
003C
003C
003C
C03C
C03C
F03C
F03C
3FF0
3FF0
03C0
03C0
03C0
03C0
0000
0000
ENDCHAR
STARTCHAR u00F8
ENCODING 248
SWIDTH 1332 0
DWIDTH 16 0
BBX 16 32 0 -8
BITMAP
0000
0000
0000
0000
0000
0000
0000
0000
0000
0000
0000
0000
3FF0
3FF0
F0FC
F0FC
F3FC
F3FC
FF3C
FF3C
FC3C
FC3C
F03C
F03C
3FF0
3FF0
0000
0000
0000
0000
0000
0000
ENDCHAR
STARTCHAR u00D5
ENCODING 213
SWIDTH 1332 0
DWIDTH 16 0
BBX 16 32 0 -8
BITMAP
0000
0000
3F3C
3F3C
F3F0
F3F0
0000
0000
3FF0
3FF0
F03C
F03C
F03C
F03C
F03C
F03C
F03C
F03C
F03C
F03C
F03C
F03C
F03C
F03C
3FF0
3FF0
0000
0000
0000
0000
0000
0000
ENDCHAR
STARTCHAR u005E
ENCODING 94
SWIDTH 1332 0
DWIDTH 16 0
BBX 16 32 0 -8
BITMAP
0000
0000
0300
0300
0FC0
0FC0
3CF0
3CF0
F03C
F03C
0000
0000
0000
0000
0000
0000
0000
0000
0000
0000
0000
0000
0000
0000
0000
0000
0000
0000
0000
0000
0000
0000
ENDCHAR
STARTCHAR u0033
ENCODING 51
SWIDTH 1332 0
DWIDTH 16 0
BBX 16 32 0 -8
BITMAP
0000
0000
0000
0000
0000
0000
3FF0
3FF0
F03C
F03C
003C
003C
003C
003C
0FF0
0FF0
003C
003C
003C
003C
003C
003C
F03C
F03C
3FF0
3FF0
0000
0000
0000
0000
0000
0000
ENDCHAR
STARTCHAR u006F
ENCODING 111
SWIDTH 1332 0
DWIDTH 16 0
BBX 16 32 0 -8
BITMAP
0000
0000
0000
0000
0000
0000
0000
0000
0000
0000
0000
0000
3FF0
3FF0
F03C
F03C
F03C
F03C
F03C
F03C
F03C
F03C
F03C
F03C
3FF0
3FF0
0000
0000
0000
0000
0000
0000
ENDCHAR
STARTCHAR u0026
ENCODING 38
SWIDTH 1332 0
DWIDTH 16 0
BBX 16 32 0 -8
BITMAP
0000
0000
0000
0000
0000
0000
0FC0
0FC0
3CF0
3CF0
3CF0
3CF0
0FC0
0FC0
3F3C
3F3C
F3F0
F3F0
F0F0
F0F0
F0F0
F0F0
F0F0
F0F0
3F3C
3F3C
0000
0000
0000
0000
0000
0000
ENDCHAR
STARTCHAR u1E57
ENCODING 7767
SWIDTH 1332 0
DWIDTH 16 0
BBX 16 32 0 -8
BITMAP
0000
0000
0000
0000
0000
0000
0000
0000
03C0
03C0
0000
0000
F3F0
F3F0
3C3C
3C3C
3C3C
3C3C
3C3C
3C3C
3C3C
3C3C
3C3C
3C3C
3FF0
3FF0
3C00
3C00
3C00
3C00
FF00
FF00
ENDCHAR
STARTCHAR u0022
ENCODING 34
SWIDTH 1332 0
DWIDTH 16 0
BBX 16 32 0 -8
BITMAP
0000
0000
0000
0000
3C3C
3C3C
3C3C
3C3C
3C3C
3C3C
0C30
0C30
0000
0000
0000
0000
0000
0000
0000
0000
0000
0000
0000
0000
0000
0000
0000
0000
0000
0000
0000
0000
ENDCHAR
STARTCHAR u00A9
ENCODING 169
SWIDTH 1332 0
DWIDTH 16 0
BBX 16 32 0 -8
BITMAP
0000
0000
0000
0000
3FF0
3FF0
C00C
C00C
C3CC
C3CC
CC0C
CC0C
CC0C
CC0C
CC0C
CC0C
C3CC
C3CC
C00C
C00C
3FF0
3FF0
0000
0000
0000
0000
0000
0000
0000
0000
0000
0000
ENDCHAR
STARTCHAR u00C4
ENCODING 196
SWIDTH 1332 0
DWIDTH 16 0
BBX 16 32 0 -8
BITMAP
0000
0000
0000
0000
F03C
F03C
0000
0000
0300
0300
0FC0
0FC0
3CF0
3CF0
F03C
F03C
F03C
F03C
FFFC
FFFC
F03C
F03C
F03C
F03C
F03C
F03C
0000
0000
0000
0000
0000
0000
ENDCHAR
STARTCHAR u1E80
ENCODING 7808
SWIDTH 1332 0
DWIDTH 16 0
BBX 16 32 0 -8
BITMAP
0F00
0F00
03C0
03C0
0000
0000
F03C
F03C
F03C
F03C
F03C
F03C
F03C
F03C
F33C
F33C
F33C
F33C
F33C
F33C
FFFC
FFFC
FCFC
FCFC
3CF0
3CF0
0000
0000
0000
0000
0000
0000
ENDCHAR
STARTCHAR u00F2
ENCODING 242
SWIDTH 1332 0
DWIDTH 16 0
BBX 16 32 0 -8
BITMAP
0000
0000
0000
0000
3C00
3C00
0F00
0F00
03C0
03C0
0000
0000
3FF0
3FF0
F03C
F03C
F03C
F03C
F03C
F03C
F03C
F03C
F03C
F03C
3FF0
3FF0
0000
0000
0000
0000
0000
0000
ENDCHAR
STARTCHAR u2593
ENCODING 9619
SWIDTH 1332 0
DWIDTH 16 0
BBX 16 32 0 -8
BITMAP
F3F3
F3F3
3F3F
3F3F
F3F3
F3F3
3F3F
3F3F
F3F3
F3F3
3F3F
3F3F
F3F3
F3F3
3F3F
3F3F
F3F3
F3F3
3F3F
3F3F
F3F3
F3F3
3F3F
3F3F
F3F3
F3F3
3F3F
3F3F
F3F3
F3F3
3F3F
3F3F
ENDCHAR
ENDFONT
